ISO-10303-21;
HEADER;
FILE_DESCRIPTION(('FreeCAD Model'),'2;1');
FILE_NAME('Open CASCADE Shape Model','2025-03-29T22:42:13',('Author'),(
    ''),'Open CASCADE STEP processor 7.7','FreeCAD','Unknown');
FILE_SCHEMA(('AUTOMOTIVE_DESIGN { 1 0 10303 214 1 1 1 1 }'));
ENDSEC;
DATA;
#1 = APPLICATION_PROTOCOL_DEFINITION('international standard',
  'automotive_design',2000,#2);
#2 = APPLICATION_CONTEXT(
  'core data for automotive mechanical design processes');
#3 = SHAPE_DEFINITION_REPRESENTATION(#4,#10);
#4 = PRODUCT_DEFINITION_SHAPE('','',#5);
#5 = PRODUCT_DEFINITION('design','',#6,#9);
#6 = PRODUCT_DEFINITION_FORMATION('','',#7);
#7 = PRODUCT('Bottle Nozzle','Bottle Nozzle','',(#8));
#8 = PRODUCT_CONTEXT('',#2,'mechanical');
#9 = PRODUCT_DEFINITION_CONTEXT('part definition',#2,'design');
#10 = ADVANCED_BREP_SHAPE_REPRESENTATION('',(#11,#15),#1661);
#11 = AXIS2_PLACEMENT_3D('',#12,#13,#14);
#12 = CARTESIAN_POINT('',(0.,0.,0.));
#13 = DIRECTION('',(0.,0.,1.));
#14 = DIRECTION('',(1.,0.,-0.));
#15 = MANIFOLD_SOLID_BREP('',#16);
#16 = CLOSED_SHELL('',(#17,#238,#385,#482,#548,#574,#607,#716,#745,#841,
    #904,#929,#954,#979,#1004,#1029,#1054,#1076,#1093,#1127,#1144,#1161,
    #1178,#1203,#1228,#1246,#1264,#1284,#1302,#1320,#1345,#1363,#1381,
    #1406,#1426,#1446,#1466,#1486,#1511,#1528,#1553,#1573,#1593,#1610,
    #1622,#1634));
#17 = ADVANCED_FACE('',(#18),#233,.F.);
#18 = FACE_BOUND('',#19,.T.);
#19 = EDGE_LOOP('',(#20,#90,#98,#135,#197,#232));
#20 = ORIENTED_EDGE('',*,*,#21,.T.);
#21 = EDGE_CURVE('',#22,#22,#24,.T.);
#22 = VERTEX_POINT('',#23);
#23 = CARTESIAN_POINT('',(35.525824574138,3.2,20.));
#24 = B_SPLINE_CURVE_WITH_KNOTS('',8,(#25,#26,#27,#28,#29,#30,#31,#32,
    #33,#34,#35,#36,#37,#38,#39,#40,#41,#42,#43,#44,#45,#46,#47,#48,#49,
    #50,#51,#52,#53,#54,#55,#56,#57,#58,#59,#60,#61,#62,#63,#64,#65,#66,
    #67,#68,#69,#70,#71,#72,#73,#74,#75,#76,#77,#78,#79,#80,#81,#82,#83,
    #84,#85,#86,#87,#88,#89),.UNSPECIFIED.,.T.,.F.,(9,7,7,7,7,7,7,7,7,9)
  ,(0.,0.115086286161,0.212083658974,0.300147321284,0.407052806445,
    0.506261655993,0.608671515161,0.696234245214,0.793498638903,1.),
  .UNSPECIFIED.);
#25 = CARTESIAN_POINT('',(35.525824574138,3.2,20.));
#26 = CARTESIAN_POINT('',(35.525824574138,3.2,20.267197320635));
#27 = CARTESIAN_POINT('',(35.517212481253,3.174502420567,20.534027815353
    ));
#28 = CARTESIAN_POINT('',(35.500028956337,3.123627217236,20.79896758527)
  );
#29 = CARTESIAN_POINT('',(35.474636085158,3.047180075918,21.060426710731
    ));
#30 = CARTESIAN_POINT('',(35.441726179926,2.944703485865,21.316635507428
    ));
#31 = CARTESIAN_POINT('',(35.402363452904,2.815522969739,21.565502394679
    ));
#32 = CARTESIAN_POINT('',(35.358045569334,2.658803789983,21.804427798147
    ));
#33 = CARTESIAN_POINT('',(35.270928907101,2.317567623751,22.220225269759
    ));
#34 = CARTESIAN_POINT('',(35.228624299895,2.139873096991,22.402676359158
    ));
#35 = CARTESIAN_POINT('',(35.185178354287,1.940108218232,22.57418741601)
  );
#36 = CARTESIAN_POINT('',(35.142300294804,1.718224104044,22.731325141323
    ));
#37 = CARTESIAN_POINT('',(35.102019380483,1.474578783307,22.870432185146
    ));
#38 = CARTESIAN_POINT('',(35.066595350318,1.209987975874,22.987588519551
    ));
#39 = CARTESIAN_POINT('',(35.038368048608,0.925838341043,23.078531010039
    ));
#40 = CARTESIAN_POINT('',(35.002380934951,0.350513196242,23.192970296604
    ));
#41 = CARTESIAN_POINT('',(34.993308507837,6.771687827067E-02,
    23.220849032027));
#42 = CARTESIAN_POINT('',(34.993562982109,-0.218633009902,
    23.219756751196));
#43 = CARTESIAN_POINT('',(35.003555109208,-0.502742238383,
    23.189155007071));
#44 = CARTESIAN_POINT('',(35.022604007526,-0.778838288702,
    23.130249380181));
#45 = CARTESIAN_POINT('',(35.049029055908,-1.041506509869,
    23.045975961664));
#46 = CARTESIAN_POINT('',(35.080480638848,-1.28599496838,22.941063191449
    ));
#47 = CARTESIAN_POINT('',(35.155640218456,-1.778544107307,
    22.677790191689));
#48 = CARTESIAN_POINT('',(35.201421005683,-2.022013524178,22.50967677231
    ));
#49 = CARTESIAN_POINT('',(35.248966613524,-2.239060346228,22.32302976115
    ));
#50 = CARTESIAN_POINT('',(35.295927023973,-2.430393431594,
    22.121880323201));
#51 = CARTESIAN_POINT('',(35.340459124759,-2.596937864689,
    21.909343811023));
#52 = CARTESIAN_POINT('',(35.38115776244,-2.739629115978,21.687815623316
    ));
#53 = CARTESIAN_POINT('',(35.416946631854,-2.859270691006,
    21.459112894486));
#54 = CARTESIAN_POINT('',(35.474909433151,-3.046564470774,
    21.006945711222));
#55 = CARTESIAN_POINT('',(35.498217994598,-3.118438745427,20.78163360375
    ));
#56 = CARTESIAN_POINT('',(35.51594255966,-3.171227784452,20.550539799779
    ));
#57 = CARTESIAN_POINT('',(35.527316857254,-3.204407387505,
    20.315579097797));
#58 = CARTESIAN_POINT('',(35.531881169425,-3.21769024715,20.078681718174
    ));
#59 = CARTESIAN_POINT('',(35.529522308347,-3.211002201019,19.84178388382
    ));
#60 = CARTESIAN_POINT('',(35.520474114683,-3.184483186401,
    19.606819219461));
#61 = CARTESIAN_POINT('',(35.489592547158,-3.091059360079,
    19.137145927882));
#62 = CARTESIAN_POINT('',(35.467281015188,-3.022652184313,
    18.901549431409));
#63 = CARTESIAN_POINT('',(35.438754961021,-2.933135845099,
    18.669980442839));
#64 = CARTESIAN_POINT('',(35.404627339646,-2.822099787944,
    18.443692122304));
#65 = CARTESIAN_POINT('',(35.365740139728,-2.688933244508,
    18.224219615478));
#66 = CARTESIAN_POINT('',(35.323223295381,-2.532885489113,
    18.013494578863));
#67 = CARTESIAN_POINT('',(35.278560481489,-2.35314970827,17.813997191056
    ));
#68 = CARTESIAN_POINT('',(35.195226270724,-1.974426369268,
    17.470742364911));
#69 = CARTESIAN_POINT('',(35.157616292274,-1.786514202611,
    17.327181133889));
#70 = CARTESIAN_POINT('',(35.1220731413,-1.58672012243,17.199626570394)
  );
#71 = CARTESIAN_POINT('',(35.089796645839,-1.376667029951,
    17.089223721212));
#72 = CARTESIAN_POINT('',(35.061836902813,-1.158086019455,
    16.996907216097));
#73 = CARTESIAN_POINT('',(35.039034718364,-0.932784271516,
    16.923399773708));
#74 = CARTESIAN_POINT('',(35.021985893692,-0.702627580777,
    16.869210812722));
#75 = CARTESIAN_POINT('',(34.998858870644,-0.21062184041,16.79622865535)
  );
#76 = CARTESIAN_POINT('',(34.994126229804,5.359423521122E-02,
    16.781772142195));
#77 = CARTESIAN_POINT('',(34.997548375368,0.318755346289,16.792484661393
    ));
#78 = CARTESIAN_POINT('',(35.009171819218,0.580358800727,16.828293345121
    ));
#79 = CARTESIAN_POINT('',(35.028270868559,0.833984265166,16.887897173895
    ));
#80 = CARTESIAN_POINT('',(35.053438856299,1.075512754248,16.968772069794
    ));
#81 = CARTESIAN_POINT('',(35.082819900548,1.301325034646,17.067130899685
    ));
#82 = CARTESIAN_POINT('',(35.18153717617,1.948256661446,17.412923058408)
  );
#83 = CARTESIAN_POINT('',(35.260844961992,2.318035350642,17.71127519225)
  );
#84 = CARTESIAN_POINT('',(35.340303645565,2.618390230411,18.050672615183
    ));
#85 = CARTESIAN_POINT('',(35.410945648996,2.853320896802,18.417057108474
    ));
#86 = CARTESIAN_POINT('',(35.467311344693,3.026744525031,18.800742458847
    ));
#87 = CARTESIAN_POINT('',(35.50617000217,3.141812569228,19.195321359173)
  );
#88 = CARTESIAN_POINT('',(35.525824574138,3.2,19.596357169988));
#89 = CARTESIAN_POINT('',(35.525824574138,3.2,20.));
#90 = ORIENTED_EDGE('',*,*,#91,.T.);
#91 = EDGE_CURVE('',#22,#92,#94,.T.);
#92 = VERTEX_POINT('',#93);
#93 = CARTESIAN_POINT('',(3.84187454246,3.2,20.));
#94 = LINE('',#95,#96);
#95 = CARTESIAN_POINT('',(62.5,3.2,20.));
#96 = VECTOR('',#97,1.);
#97 = DIRECTION('',(-1.,-1.7E-16,1.1E-16));
#98 = ORIENTED_EDGE('',*,*,#99,.F.);
#99 = EDGE_CURVE('',#100,#92,#102,.T.);
#100 = VERTEX_POINT('',#101);
#101 = CARTESIAN_POINT('',(5.,5.730349362741E-15,16.8));
#102 = B_SPLINE_CURVE_WITH_KNOTS('',6,(#103,#104,#105,#106,#107,#108,
    #109,#110,#111,#112,#113,#114,#115,#116,#117,#118,#119,#120,#121,
    #122,#123,#124,#125,#126,#127,#128,#129,#130,#131,#132,#133,#134),
  .UNSPECIFIED.,.F.,.F.,(7,5,5,5,5,5,7),(0.,0.217444454105,
    0.318895720297,0.394054042092,0.585493883327,0.798420800633,1.),
  .UNSPECIFIED.);
#103 = CARTESIAN_POINT('',(5.,6.390349362741E-15,16.8));
#104 = CARTESIAN_POINT('',(5.,0.226318829614,16.8));
#105 = CARTESIAN_POINT('',(4.987706810307,0.450655627948,16.819207768004
    ));
#106 = CARTESIAN_POINT('',(4.963526396083,0.669737520872,16.856991290146
    ));
#107 = CARTESIAN_POINT('',(4.928807735206,0.880391643698,16.911745582728
    ));
#108 = CARTESIAN_POINT('',(4.885793862375,1.079703556888,16.980894088906
    ));
#109 = CARTESIAN_POINT('',(4.814664444142,1.351667178513,17.097954423246
    ));
#110 = CARTESIAN_POINT('',(4.790739644303,1.435557741947,17.137685486231
    ));
#111 = CARTESIAN_POINT('',(4.765702465076,1.516820407783,17.17970157597)
  );
#112 = CARTESIAN_POINT('',(4.739727717293,1.595466286257,17.223813855762
    ));
#113 = CARTESIAN_POINT('',(4.712980544896,1.671515007266,17.269849493141
    ));
#114 = CARTESIAN_POINT('',(4.665343039211,1.799430066359,17.353064267067
    ));
#115 = CARTESIAN_POINT('',(4.644727712221,1.852465449977,17.389453054848
    ));
#116 = CARTESIAN_POINT('',(4.623828783822,1.904120591992,17.426760603448
    ));
#117 = CARTESIAN_POINT('',(4.602701711092,1.954416839861,17.464936344253
    ));
#118 = CARTESIAN_POINT('',(4.581398392731,2.00337673091,17.503936124994)
  );
#119 = CARTESIAN_POINT('',(4.505378535893,2.172388918322,17.645063505926
    ));
#120 = CARTESIAN_POINT('',(4.449946877633,2.285266649246,17.751531234033
    ));
#121 = CARTESIAN_POINT('',(4.394490476504,2.389997834954,17.862474665639
    ));
#122 = CARTESIAN_POINT('',(4.339721416704,2.486903230219,17.977445627534
    ));
#123 = CARTESIAN_POINT('',(4.286293439722,2.576247620813,18.096156947539
    ));
#124 = CARTESIAN_POINT('',(4.177632160832,2.749358577867,18.354449919811
    ));
#125 = CARTESIAN_POINT('',(4.12283342344,2.831430823679,18.494963878383)
  );
#126 = CARTESIAN_POINT('',(4.071457489459,2.90445700333,18.639493756448)
  );
#127 = CARTESIAN_POINT('',(4.024475495803,2.968439470941,18.787648033743
    ));
#128 = CARTESIAN_POINT('',(3.982816346658,3.02332880287,18.93912367268)
  );
#129 = CARTESIAN_POINT('',(3.913728994012,3.112189201176,19.24002691037)
  );
#130 = CARTESIAN_POINT('',(3.885647114393,3.147136665006,19.389192911621
    ));
#131 = CARTESIAN_POINT('',(3.863941946759,3.173506234381,19.540420193672
    ));
#132 = CARTESIAN_POINT('',(3.849241207363,3.191155673634,19.693035129901
    ));
#133 = CARTESIAN_POINT('',(3.84187454246,3.2,19.846425768219));
#134 = CARTESIAN_POINT('',(3.84187454246,3.2,20.));
#135 = ORIENTED_EDGE('',*,*,#136,.F.);
#136 = EDGE_CURVE('',#137,#100,#139,.T.);
#137 = VERTEX_POINT('',#138);
#138 = CARTESIAN_POINT('',(5.,8.151434834261E-15,23.2));
#139 = B_SPLINE_CURVE_WITH_KNOTS('',6,(#140,#141,#142,#143,#144,#145,
    #146,#147,#148,#149,#150,#151,#152,#153,#154,#155,#156,#157,#158,
    #159,#160,#161,#162,#163,#164,#165,#166,#167,#168,#169,#170,#171,
    #172,#173,#174,#175,#176,#177,#178,#179,#180,#181,#182,#183,#184,
    #185,#186,#187,#188,#189,#190,#191,#192,#193,#194,#195,#196),
  .UNSPECIFIED.,.F.,.F.,(7,5,5,5,5,5,5,5,5,5,5,7),(0.,0.108714937406,
    0.159437169434,0.197013810715,0.29272731982,0.39918364036,
    0.499966482349,0.601328619956,0.70559959169,0.840430114201,
    0.889950719322,1.),.UNSPECIFIED.);
#140 = CARTESIAN_POINT('',(5.,7.221434834261E-15,23.2));
#141 = CARTESIAN_POINT('',(5.,-0.226318829614,23.2));
#142 = CARTESIAN_POINT('',(4.987706810307,-0.450655627948,
    23.180792231996));
#143 = CARTESIAN_POINT('',(4.963526396083,-0.669737520872,
    23.143008709854));
#144 = CARTESIAN_POINT('',(4.928807735206,-0.880391643697,
    23.088254417272));
#145 = CARTESIAN_POINT('',(4.885793862375,-1.079703556888,
    23.019105911094));
#146 = CARTESIAN_POINT('',(4.81466444414,-1.351667178517,22.902045576752
    ));
#147 = CARTESIAN_POINT('',(4.790739644304,-1.435557741945,22.86231451377
    ));
#148 = CARTESIAN_POINT('',(4.765702465078,-1.516820407779,
    22.820298424033));
#149 = CARTESIAN_POINT('',(4.739727717293,-1.595466286256,
    22.776186144239));
#150 = CARTESIAN_POINT('',(4.712980544894,-1.671515007269,
    22.730150506857));
#151 = CARTESIAN_POINT('',(4.665343039211,-1.799430066359,
    22.646935732933));
#152 = CARTESIAN_POINT('',(4.644727712221,-1.852465449977,
    22.610546945152));
#153 = CARTESIAN_POINT('',(4.623828783822,-1.904120591992,
    22.573239396552));
#154 = CARTESIAN_POINT('',(4.602701711092,-1.954416839861,
    22.535063655747));
#155 = CARTESIAN_POINT('',(4.581398392731,-2.00337673091,22.496063875006
    ));
#156 = CARTESIAN_POINT('',(4.505378532276,-2.172388926362,
    22.354936487361));
#157 = CARTESIAN_POINT('',(4.449946883278,-2.285266638233,
    22.248468777618));
#158 = CARTESIAN_POINT('',(4.394490476619,-2.389997833717,
    22.137525333762));
#159 = CARTESIAN_POINT('',(4.339721411114,-2.48690324065,22.022554360537
    ));
#160 = CARTESIAN_POINT('',(4.286293443093,-2.576247615442,
    21.903843060475));
#161 = CARTESIAN_POINT('',(4.177632160832,-2.749358577867,
    21.645550080189));
#162 = CARTESIAN_POINT('',(4.12283342344,-2.831430823679,21.505036121617
    ));
#163 = CARTESIAN_POINT('',(4.071457489459,-2.90445700333,21.360506243552
    ));
#164 = CARTESIAN_POINT('',(4.024475495803,-2.968439470941,
    21.212351966258));
#165 = CARTESIAN_POINT('',(3.982816346658,-3.02332880287,21.060876327321
    ));
#166 = CARTESIAN_POINT('',(3.913728994012,-3.112189201176,20.75997308963
    ));
#167 = CARTESIAN_POINT('',(3.885647114393,-3.147136665006,
    20.610807088379));
#168 = CARTESIAN_POINT('',(3.863941946759,-3.173506234381,
    20.459579806328));
#169 = CARTESIAN_POINT('',(3.849241207363,-3.191155673634,20.3069648701)
  );
#170 = CARTESIAN_POINT('',(3.84187454246,-3.2,20.153574231781));
#171 = CARTESIAN_POINT('',(3.84187454246,-3.2,19.84554302987));
#172 = CARTESIAN_POINT('',(3.849326135216,-3.191053709862,19.69127465105
    ));
#173 = CARTESIAN_POINT('',(3.864195655327,-3.173201637642,
    19.537795387519));
#174 = CARTESIAN_POINT('',(3.886146053112,-3.146530441025,
    19.385726225654));
#175 = CARTESIAN_POINT('',(3.914535917759,-3.111184831392,
    19.235751451298));
#176 = CARTESIAN_POINT('',(3.983411924294,-3.02252712845,18.937339414241
    ));
#177 = CARTESIAN_POINT('',(4.024239055491,-2.968706341977,
    18.788994707856));
#178 = CARTESIAN_POINT('',(4.070170965541,-2.906159817079,
    18.643837691365));
#179 = CARTESIAN_POINT('',(4.120334802665,-2.834935667258,18.50215482716
    ));
#180 = CARTESIAN_POINT('',(4.173817926675,-2.755034591556,
    18.364313778924));
#181 = CARTESIAN_POINT('',(4.301907902422,-2.551849059063,
    18.058090362251));
#182 = CARTESIAN_POINT('',(4.378125225957,-2.422691925667,17.89256526077
    ));
#183 = CARTESIAN_POINT('',(4.456561468687,-2.278451425517,
    17.734542338434));
#184 = CARTESIAN_POINT('',(4.535425780869,-2.11824025096,17.584900190022
    ));
#185 = CARTESIAN_POINT('',(4.612579356818,-1.941005884694,
    17.445250525947));
#186 = CARTESIAN_POINT('',(4.712025930712,-1.674116187515,
    17.271510882382));
#187 = CARTESIAN_POINT('',(4.738151763131,-1.599978009117,
    17.226522897337));
#188 = CARTESIAN_POINT('',(4.763546137754,-1.523367127205,
    17.183362277002));
#189 = CARTESIAN_POINT('',(4.788056333183,-1.444264437602,
    17.142188927397));
#190 = CARTESIAN_POINT('',(4.811520747454,-1.362658464624,
    17.103177447275));
#191 = CARTESIAN_POINT('',(4.883210801314,-1.091621422688,
    16.985047167405));
#192 = CARTESIAN_POINT('',(4.927141631081,-0.890446180021,
    16.914373809236));
#193 = CARTESIAN_POINT('',(4.96265163682,-0.677593132235,16.858358182875
    ));
#194 = CARTESIAN_POINT('',(4.987407245853,-0.456045513598,16.81967582396
    ));
#195 = CARTESIAN_POINT('',(5.,-0.229059714436,16.8));
#196 = CARTESIAN_POINT('',(5.,5.760349362741E-15,16.8));
#197 = ORIENTED_EDGE('',*,*,#198,.F.);
#198 = EDGE_CURVE('',#92,#137,#199,.T.);
#199 = B_SPLINE_CURVE_WITH_KNOTS('',6,(#200,#201,#202,#203,#204,#205,
    #206,#207,#208,#209,#210,#211,#212,#213,#214,#215,#216,#217,#218,
    #219,#220,#221,#222,#223,#224,#225,#226,#227,#228,#229,#230,#231),
  .UNSPECIFIED.,.F.,.F.,(7,5,5,5,5,5,7),(0.,0.202744673112,
    0.411307599846,0.606519463387,0.680936139645,0.779953791551,1.),
  .UNSPECIFIED.);
#200 = CARTESIAN_POINT('',(3.84187454246,3.2,20.));
#201 = CARTESIAN_POINT('',(3.84187454246,3.2,20.15445697013));
#202 = CARTESIAN_POINT('',(3.849326135216,3.191053709862,20.30872534895)
  );
#203 = CARTESIAN_POINT('',(3.864195655327,3.173201637642,20.46220461248)
  );
#204 = CARTESIAN_POINT('',(3.886146053112,3.146530441025,20.614273774347
    ));
#205 = CARTESIAN_POINT('',(3.914535917759,3.111184831392,20.764248548702
    ));
#206 = CARTESIAN_POINT('',(3.983411924294,3.02252712845,21.06266058576)
  );
#207 = CARTESIAN_POINT('',(4.024239055491,2.968706341977,21.211005292144
    ));
#208 = CARTESIAN_POINT('',(4.070170965541,2.906159817079,21.356162308635
    ));
#209 = CARTESIAN_POINT('',(4.120334802665,2.834935667258,21.49784517284)
  );
#210 = CARTESIAN_POINT('',(4.173817926675,2.755034591556,21.635686221076
    ));
#211 = CARTESIAN_POINT('',(4.28196091386,2.583490407021,21.894222572823)
  );
#212 = CARTESIAN_POINT('',(4.336353668681,2.492882858083,22.015516099295
    ));
#213 = CARTESIAN_POINT('',(4.392173772021,2.394425729932,22.132936234775
    ));
#214 = CARTESIAN_POINT('',(4.44872958435,2.287840744106,22.246182625203)
  );
#215 = CARTESIAN_POINT('',(4.50526719072,2.172788706712,22.354781979354)
  );
#216 = CARTESIAN_POINT('',(4.582132557826,2.001684642659,22.497406301239
    ));
#217 = CARTESIAN_POINT('',(4.603220371177,1.953172959956,22.535998252628
    ));
#218 = CARTESIAN_POINT('',(4.624134395302,1.903350786717,22.573781509766
    ));
#219 = CARTESIAN_POINT('',(4.644824216961,1.852196253903,22.610713144901
    ));
#220 = CARTESIAN_POINT('',(4.665235999195,1.79968864481,22.646744058882)
  );
#221 = CARTESIAN_POINT('',(4.712025930782,1.674116187328,22.72848911774)
  );
#222 = CARTESIAN_POINT('',(4.738151763116,1.599978009192,22.77347710264)
  );
#223 = CARTESIAN_POINT('',(4.763546137688,1.523367127415,22.816637722886
    ));
#224 = CARTESIAN_POINT('',(4.788056333162,1.444264437639,22.857811072565
    ));
#225 = CARTESIAN_POINT('',(4.811520747516,1.362658464389,22.896822552828
    ));
#226 = CARTESIAN_POINT('',(4.883210801314,1.091621422689,23.014952832594
    ));
#227 = CARTESIAN_POINT('',(4.927141631082,0.89044618002,23.085626190764)
  );
#228 = CARTESIAN_POINT('',(4.96265163682,0.677593132234,23.141641817125)
  );
#229 = CARTESIAN_POINT('',(4.987407245853,0.456045513597,23.18032417604)
  );
#230 = CARTESIAN_POINT('',(5.,0.229059714437,23.2));
#231 = CARTESIAN_POINT('',(5.,8.701434834261E-15,23.2));
#232 = ORIENTED_EDGE('',*,*,#91,.F.);
#233 = CYLINDRICAL_SURFACE('',#234,3.2);
#234 = AXIS2_PLACEMENT_3D('',#235,#236,#237);
#235 = CARTESIAN_POINT('',(62.5,-3.552713678801E-15,20.));
#236 = DIRECTION('',(-1.,-1.1E-16,1.1E-16));
#237 = DIRECTION('',(-1.1E-16,1.,-2.22044604925E-16));
#238 = ADVANCED_FACE('',(#239,#266,#269),#380,.F.);
#239 = FACE_BOUND('',#240,.T.);
#240 = EDGE_LOOP('',(#241,#250,#258,#265));
#241 = ORIENTED_EDGE('',*,*,#242,.T.);
#242 = EDGE_CURVE('',#243,#243,#245,.T.);
#243 = VERTEX_POINT('',#244);
#244 = CARTESIAN_POINT('',(45.,10.,27.9));
#245 = CIRCLE('',#246,10.);
#246 = AXIS2_PLACEMENT_3D('',#247,#248,#249);
#247 = CARTESIAN_POINT('',(45.,-4.955522591625E-18,27.9));
#248 = DIRECTION('',(1.1E-16,2.044604925031E-18,1.));
#249 = DIRECTION('',(0.,1.,-2.044604925031E-18));
#250 = ORIENTED_EDGE('',*,*,#251,.T.);
#251 = EDGE_CURVE('',#243,#252,#254,.T.);
#252 = VERTEX_POINT('',#253);
#253 = CARTESIAN_POINT('',(45.,10.,11.5));
#254 = LINE('',#255,#256);
#255 = CARTESIAN_POINT('',(45.,10.,27.9));
#256 = VECTOR('',#257,1.);
#257 = DIRECTION('',(0.,-2.22044604925E-16,-1.));
#258 = ORIENTED_EDGE('',*,*,#259,.F.);
#259 = EDGE_CURVE('',#252,#252,#260,.T.);
#260 = CIRCLE('',#261,10.);
#261 = AXIS2_PLACEMENT_3D('',#262,#263,#264);
#262 = CARTESIAN_POINT('',(45.,3.512956637861E-18,11.5));
#263 = DIRECTION('',(1.1E-16,2.044604925031E-18,1.));
#264 = DIRECTION('',(0.,1.,-2.044604925031E-18));
#265 = ORIENTED_EDGE('',*,*,#251,.F.);
#266 = FACE_BOUND('',#267,.T.);
#267 = EDGE_LOOP('',(#268));
#268 = ORIENTED_EDGE('',*,*,#21,.F.);
#269 = FACE_BOUND('',#270,.T.);
#270 = EDGE_LOOP('',(#271));
#271 = ORIENTED_EDGE('',*,*,#272,.T.);
#272 = EDGE_CURVE('',#273,#273,#275,.T.);
#273 = VERTEX_POINT('',#274);
#274 = CARTESIAN_POINT('',(54.404254356407,3.4,20.));
#275 = B_SPLINE_CURVE_WITH_KNOTS('',7,(#276,#277,#278,#279,#280,#281,
    #282,#283,#284,#285,#286,#287,#288,#289,#290,#291,#292,#293,#294,
    #295,#296,#297,#298,#299,#300,#301,#302,#303,#304,#305,#306,#307,
    #308,#309,#310,#311,#312,#313,#314,#315,#316,#317,#318,#319,#320,
    #321,#322,#323,#324,#325,#326,#327,#328,#329,#330,#331,#332,#333,
    #334,#335,#336,#337,#338,#339,#340,#341,#342,#343,#344,#345,#346,
    #347,#348,#349,#350,#351,#352,#353,#354,#355,#356,#357,#358,#359,
    #360,#361,#362,#363,#364,#365,#366,#367,#368,#369,#370,#371,#372,
    #373,#374,#375,#376,#377,#378,#379),.UNSPECIFIED.,.T.,.F.,(8,6,6,6,6
    ,6,6,6,6,6,6,6,6,6,6,6,6,8),(0.,0.118025116639,0.181959250635,
    0.220934089667,0.277121999918,0.318259078507,0.352554191401,
    0.406769013673,0.443511680077,0.500176649389,0.572224619943,
    0.618240254798,0.682148651437,0.72110780073,0.777273091923,
    0.81839361033,0.85267491735,1.),.UNSPECIFIED.);
#276 = CARTESIAN_POINT('',(54.404254356407,3.4,20.));
#277 = CARTESIAN_POINT('',(54.404254356407,3.4,20.315765767433));
#278 = CARTESIAN_POINT('',(54.416623740764,3.365786933443,
    20.631021838815));
#279 = CARTESIAN_POINT('',(54.441291551031,3.297556178258,
    20.943336054806));
#280 = CARTESIAN_POINT('',(54.477508674299,3.194930599588,
    21.250162482699));
#281 = CARTESIAN_POINT('',(54.523826487484,3.057081089692,
    21.548563527106));
#282 = CARTESIAN_POINT('',(54.577977370726,2.882834553525,
    21.834832857508));
#283 = CARTESIAN_POINT('',(54.668552400516,2.556030644708,
    22.249698056413));
#284 = CARTESIAN_POINT('',(54.701770471411,2.42997477899,22.390626713526
    ));
#285 = CARTESIAN_POINT('',(54.735876079503,2.292416240511,
    22.525898918527));
#286 = CARTESIAN_POINT('',(54.770270410456,2.143079373797,22.65454032848
    ));
#287 = CARTESIAN_POINT('',(54.80424277401,1.981723450752,22.775389703044
    ));
#288 = CARTESIAN_POINT('',(54.83696658785,1.808184075351,22.887066530758
    ));
#289 = CARTESIAN_POINT('',(54.886129601668,1.509176039026,
    23.049425004791));
#290 = CARTESIAN_POINT('',(54.903951916902,1.39131018906,23.106941205943
    ));
#291 = CARTESIAN_POINT('',(54.920723780186,1.269045659854,
    23.159970432147));
#292 = CARTESIAN_POINT('',(54.936193427156,1.142640939429,
    23.208034068779));
#293 = CARTESIAN_POINT('',(54.950118344596,1.012389108718,
    23.250685774761));
#294 = CARTESIAN_POINT('',(54.962273086071,0.878617444235,
    23.287509414628));
#295 = CARTESIAN_POINT('',(54.987138809821,0.544281860476,
    23.362242271773));
#296 = CARTESIAN_POINT('',(54.997721657197,0.340351915776,
    23.393439849527));
#297 = CARTESIAN_POINT('',(55.003508890432,0.132313428985,
    23.410260975954));
#298 = CARTESIAN_POINT('',(55.004097114021,-7.72726310488E-02,
    23.41196907831));
#299 = CARTESIAN_POINT('',(54.999458204986,-0.285792944663,
    23.398513183082));
#300 = CARTESIAN_POINT('',(54.989942432936,-0.490674395664,
    23.370527555733));
#301 = CARTESIAN_POINT('',(54.966143498291,-0.835026803623,
    23.29921560027));
#302 = CARTESIAN_POINT('',(54.95382777052,-0.97720802924,23.262029137143
    ));
#303 = CARTESIAN_POINT('',(54.939483289433,-1.115573710608,
    23.21824230592));
#304 = CARTESIAN_POINT('',(54.923371841865,-1.249718854569,
    23.168338041451));
#305 = CARTESIAN_POINT('',(54.905778828648,-1.379280990246,
    23.11284081819));
#306 = CARTESIAN_POINT('',(54.887002793094,-1.503940914026,
    23.052319394143));
#307 = CARTESIAN_POINT('',(54.850956620787,-1.72303348636,
    22.933258920196));
#308 = CARTESIAN_POINT('',(54.833936220952,-1.81916171201,
    22.876001298353));
#309 = CARTESIAN_POINT('',(54.816428353746,-1.911800015625,
    22.815870284447));
#310 = CARTESIAN_POINT('',(54.79857018377,-2.000949869754,
    22.753103159001));
#311 = CARTESIAN_POINT('',(54.780490635135,-2.086621948203,
    22.68792115886));
#312 = CARTESIAN_POINT('',(54.762309590131,-2.168835758867,
    22.62052974817));
#313 = CARTESIAN_POINT('',(54.715409409334,-2.372162806243,
    22.441391961594));
#314 = CARTESIAN_POINT('',(54.686692376536,-2.488179875141,
    22.326577607181));
#315 = CARTESIAN_POINT('',(54.658404803293,-2.595842183421,
    22.207353568611));
#316 = CARTESIAN_POINT('',(54.63090781896,-2.695332807778,
    22.084290475019));
#317 = CARTESIAN_POINT('',(54.604511561926,-2.786833896817,
    21.957866627932));
#318 = CARTESIAN_POINT('',(54.579481873083,-2.87051436642,
    21.828482787017));
#319 = CARTESIAN_POINT('',(54.540164614681,-2.998026779516,
    21.607013484123));
#320 = CARTESIAN_POINT('',(54.525015772079,-3.046006622062,
    21.516351319908));
#321 = CARTESIAN_POINT('',(54.510673596789,-3.09049555604,
    21.424607741396));
#322 = CARTESIAN_POINT('',(54.497203402855,-3.131527913677,
    21.331891910904));
#323 = CARTESIAN_POINT('',(54.484662943449,-3.169133973018,
    21.238304973966));
#324 = CARTESIAN_POINT('',(54.473102671255,-3.203340004793,
    21.143940158432));
#325 = CARTESIAN_POINT('',(54.446316219574,-3.281712106019,
    20.902284418511));
#326 = CARTESIAN_POINT('',(54.432500868177,-3.321222618448,
    20.754037461165));
#327 = CARTESIAN_POINT('',(54.42128467486,-3.352765027941,
    20.604502445769));
#328 = CARTESIAN_POINT('',(54.412790528027,-3.376389267591,
    20.454015601268));
#329 = CARTESIAN_POINT('',(54.40710008061,-3.392128902492,
    20.302896410209));
#330 = CARTESIAN_POINT('',(54.404254356407,-3.4,20.151455077639));
#331 = CARTESIAN_POINT('',(54.404254356407,-3.4,19.807428979379));
#332 = CARTESIAN_POINT('',(54.408854964432,-3.387275258226,
    19.614902788487));
#333 = CARTESIAN_POINT('',(54.41805185578,-3.361836399856,
    19.423041435209));
#334 = CARTESIAN_POINT('',(54.431738781784,-3.323639781765,
    19.232470239677));
#335 = CARTESIAN_POINT('',(54.449704499449,-3.272592448276,
    19.043846266015));
#336 = CARTESIAN_POINT('',(54.47162970108,-3.20855708691,18.857884754084
    ));
#337 = CARTESIAN_POINT('',(54.513341072821,-3.082050782825,
    18.55882686656));
#338 = CARTESIAN_POINT('',(54.531038042451,-3.027373576744,
    18.443677538002));
#339 = CARTESIAN_POINT('',(54.550068279763,-2.967261537451,
    18.330108773215));
#340 = CARTESIAN_POINT('',(54.570307075209,-2.901641444134,
    18.218320320091));
#341 = CARTESIAN_POINT('',(54.591610241166,-2.830430607088,
    18.108540880608));
#342 = CARTESIAN_POINT('',(54.613812770358,-2.753536791206,18.0010285247
    ));
#343 = CARTESIAN_POINT('',(54.668552400516,-2.556030644708,
    17.750301943587));
#344 = CARTESIAN_POINT('',(54.701770471411,-2.42997477899,
    17.609373286474));
#345 = CARTESIAN_POINT('',(54.735876079503,-2.292416240511,
    17.474101081473));
#346 = CARTESIAN_POINT('',(54.770270410456,-2.143079373797,
    17.34545967152));
#347 = CARTESIAN_POINT('',(54.80424277401,-1.981723450752,
    17.224610296956));
#348 = CARTESIAN_POINT('',(54.83696658785,-1.808184075351,
    17.112933469242));
#349 = CARTESIAN_POINT('',(54.886129601664,-1.509176039051,
    16.950574995222));
#350 = CARTESIAN_POINT('',(54.903951916903,-1.391310189062,
    16.893058794055));
#351 = CARTESIAN_POINT('',(54.92072378019,-1.26904565983,16.840029567841
    ));
#352 = CARTESIAN_POINT('',(54.936193427158,-1.142640939404,
    16.791965931214));
#353 = CARTESIAN_POINT('',(54.950118344595,-1.01238910872,
    16.749314225242));
#354 = CARTESIAN_POINT('',(54.962273086068,-0.878617444269,
    16.712490585379));
#355 = CARTESIAN_POINT('',(54.987138809821,-0.544281860476,
    16.637757728227));
#356 = CARTESIAN_POINT('',(54.997721657197,-0.340351915776,
    16.606560150473));
#357 = CARTESIAN_POINT('',(55.003508890432,-0.132313428985,
    16.589739024046));
#358 = CARTESIAN_POINT('',(55.004097114021,7.727263104873E-02,
    16.58803092169));
#359 = CARTESIAN_POINT('',(54.999458204986,0.285792944663,
    16.601486816918));
#360 = CARTESIAN_POINT('',(54.989942432936,0.490674395664,
    16.629472444267));
#361 = CARTESIAN_POINT('',(54.966143498291,0.835026803623,16.70078439973
    ));
#362 = CARTESIAN_POINT('',(54.95382777052,0.97720802924,16.737970862857)
  );
#363 = CARTESIAN_POINT('',(54.939483289433,1.115573710608,16.78175769408
    ));
#364 = CARTESIAN_POINT('',(54.923371841865,1.249718854569,
    16.831661958549));
#365 = CARTESIAN_POINT('',(54.905778828648,1.379280990246,16.88715918181
    ));
#366 = CARTESIAN_POINT('',(54.887002793094,1.503940914026,
    16.947680605857));
#367 = CARTESIAN_POINT('',(54.850956620787,1.72303348636,17.066741079804
    ));
#368 = CARTESIAN_POINT('',(54.833936220952,1.81916171201,17.123998701647
    ));
#369 = CARTESIAN_POINT('',(54.816428353746,1.911800015625,
    17.184129715553));
#370 = CARTESIAN_POINT('',(54.79857018377,2.000949869754,17.246896840999
    ));
#371 = CARTESIAN_POINT('',(54.780490635135,2.086621948203,17.31207884114
    ));
#372 = CARTESIAN_POINT('',(54.762309590131,2.168835758867,17.37947025183
    ));
#373 = CARTESIAN_POINT('',(54.666040141555,2.586194122924,
    17.747176636746));
#374 = CARTESIAN_POINT('',(54.587839400016,2.862548600848,
    18.083769066129));
#375 = CARTESIAN_POINT('',(54.517995148434,3.079372545203,
    18.445158087991));
#376 = CARTESIAN_POINT('',(54.462140806921,3.239891087219,
    18.822912533335));
#377 = CARTESIAN_POINT('',(54.42363771055,3.346385746912,19.210936914593
    ));
#378 = CARTESIAN_POINT('',(54.404254356407,3.4,19.604720179202));
#379 = CARTESIAN_POINT('',(54.404254356407,3.4,20.));
#380 = CYLINDRICAL_SURFACE('',#381,10.);
#381 = AXIS2_PLACEMENT_3D('',#382,#383,#384);
#382 = CARTESIAN_POINT('',(45.,-4.955522591625E-18,27.9));
#383 = DIRECTION('',(-1.1E-16,-2.044604925031E-18,-1.));
#384 = DIRECTION('',(0.,1.,-2.044604925031E-18));
#385 = ADVANCED_FACE('',(#386),#477,.F.);
#386 = FACE_BOUND('',#387,.T.);
#387 = EDGE_LOOP('',(#388,#398,#407));
#388 = ORIENTED_EDGE('',*,*,#389,.F.);
#389 = EDGE_CURVE('',#390,#392,#394,.T.);
#390 = VERTEX_POINT('',#391);
#391 = CARTESIAN_POINT('',(5.,1.552713678801E-15,16.));
#392 = VERTEX_POINT('',#393);
#393 = CARTESIAN_POINT('',(0.,2.885624384966E-15,12.995696904862));
#394 = LINE('',#395,#396);
#395 = CARTESIAN_POINT('',(5.,0.,16.));
#396 = VECTOR('',#397,1.);
#397 = DIRECTION('',(-0.857167300702,-5.436142586475E-17,-0.51503807491)
  );
#398 = ORIENTED_EDGE('',*,*,#399,.T.);
#399 = EDGE_CURVE('',#390,#400,#402,.T.);
#400 = VERTEX_POINT('',#401);
#401 = CARTESIAN_POINT('',(-5.,1.945527136788E-13,16.));
#402 = CIRCLE('',#403,5.);
#403 = AXIS2_PLACEMENT_3D('',#404,#405,#406);
#404 = CARTESIAN_POINT('',(0.,1.432713678801E-15,16.));
#405 = DIRECTION('',(-0.,1.12044604925E-16,1.));
#406 = DIRECTION('',(1.,0.,0.));
#407 = ORIENTED_EDGE('',*,*,#408,.T.);
#408 = EDGE_CURVE('',#400,#392,#409,.T.);
#409 = B_SPLINE_CURVE_WITH_KNOTS('',6,(#410,#411,#412,#413,#414,#415,
    #416,#417,#418,#419,#420,#421,#422,#423,#424,#425,#426,#427,#428,
    #429,#430,#431,#432,#433,#434,#435,#436,#437,#438,#439,#440,#441,
    #442,#443,#444,#445,#446,#447,#448,#449,#450,#451,#452,#453,#454,
    #455,#456,#457,#458,#459,#460,#461,#462,#463,#464,#465,#466,#467,
    #468,#469,#470,#471,#472,#473,#474,#475,#476),.UNSPECIFIED.,.F.,.F.,
  (7,5,5,5,5,5,5,5,5,5,5,5,5,7),(0.,0.100420742104,0.152463669249,
    0.258040071763,0.412801305052,0.550441105708,0.666684656252,
    0.831144346199,0.91493359223,0.957410593383,0.978375680425,
    0.988862521834,0.994414820578,1.),.UNSPECIFIED.);
#410 = CARTESIAN_POINT('',(-5.,1.332713678801E-15,16.));
#411 = CARTESIAN_POINT('',(-5.,0.177145369549,16.));
#412 = CARTESIAN_POINT('',(-4.98493701757,0.354357833618,15.995474596012
    ));
#413 = CARTESIAN_POINT('',(-4.954792165751,0.529163384773,
    15.986418316965));
#414 = CARTESIAN_POINT('',(-4.910256478053,0.699416734498,
    15.972986844405));
#415 = CARTESIAN_POINT('',(-4.85242899703,0.863279869188,15.955410452995
    ));
#416 = CARTESIAN_POINT('',(-4.74670300643,1.100073312042,15.92293391296)
  );
#417 = CARTESIAN_POINT('',(-4.707431543981,1.178803756165,
    15.910820457218));
#418 = CARTESIAN_POINT('',(-4.665171322778,1.255245158011,
    15.897721272431));
#419 = CARTESIAN_POINT('',(-4.620128708531,1.329244304392,
    15.883680906872));
#420 = CARTESIAN_POINT('',(-4.572515662322,1.400680954247,15.86874502315
    ));
#421 = CARTESIAN_POINT('',(-4.421164864149,1.608997456502,15.82093464978
    ));
#422 = CARTESIAN_POINT('',(-4.310086169698,1.737591450671,
    15.785415157518));
#423 = CARTESIAN_POINT('',(-4.191041116885,1.854523231294,
    15.746772186637));
#424 = CARTESIAN_POINT('',(-4.06571891503,1.959535640059,15.705364218177
    ));
#425 = CARTESIAN_POINT('',(-3.935625755008,2.052673114173,
    15.661514159304));
#426 = CARTESIAN_POINT('',(-3.606214425447,2.253643558397,
    15.548023770446));
#427 = CARTESIAN_POINT('',(-3.402967779356,2.348055676321,
    15.475915331231));
#428 = CARTESIAN_POINT('',(-3.196180156793,2.41828600328,15.399964212414
    ));
#429 = CARTESIAN_POINT('',(-2.989039631434,2.465704053116,
    15.320833244106));
#430 = CARTESIAN_POINT('',(-2.78400550783,2.491955549127,15.23905708702)
  );
#431 = CARTESIAN_POINT('',(-2.403978872506,2.504558994331,
    15.080205395573));
#432 = CARTESIAN_POINT('',(-2.228225106379,2.495002267992,
    15.003632740204));
#433 = CARTESIAN_POINT('',(-2.056898196159,2.471087399984,
    14.925523118445));
#434 = CARTESIAN_POINT('',(-1.891051603067,2.433927206542,
    14.846097582151));
#435 = CARTESIAN_POINT('',(-1.731519132078,2.384610762168,14.76553716926
    ));
#436 = CARTESIAN_POINT('',(-1.45010665947,2.273088888341,14.61508888219)
  );
#437 = CARTESIAN_POINT('',(-1.326239150273,2.214083162468,
    14.545494348727));
#438 = CARTESIAN_POINT('',(-1.207753294326,2.147748696895,
    14.475273685982));
#439 = CARTESIAN_POINT('',(-1.094984634196,2.074679491837,
    14.404501491123));
#440 = CARTESIAN_POINT('',(-0.988211351965,1.995446097533,
    14.333242025423));
#441 = CARTESIAN_POINT('',(-0.745407292908,1.790545316128,
    14.160116633864));
#442 = CARTESIAN_POINT('',(-0.615620285175,1.659257787725,
    14.057822307237));
#443 = CARTESIAN_POINT('',(-0.498946580104,1.518272080413,
    13.954813059688));
#444 = CARTESIAN_POINT('',(-0.395879358015,1.369063286343,
    13.851221777408));
#445 = CARTESIAN_POINT('',(-0.306783516532,1.213045209908,
    13.747163255437));
#446 = CARTESIAN_POINT('',(-0.193777441481,0.96930904623,13.589524853047
    ));
#447 = CARTESIAN_POINT('',(-0.159330439456,0.885629153026,
    13.536222473013));
#448 = CARTESIAN_POINT('',(-0.128613056447,0.800715880803,
    13.482837154884));
#449 = CARTESIAN_POINT('',(-0.101653880806,0.71474763696,13.429381555135
    ));
#450 = CARTESIAN_POINT('',(-7.847539936011E-02,0.627900812416,
    13.375867826734));
#451 = CARTESIAN_POINT('',(-4.926858576223E-02,0.495965741738,
    13.29515524449));
#452 = CARTESIAN_POINT('',(-4.041904682663E-02,0.451400770499,
    13.267990940968));
#453 = CARTESIAN_POINT('',(-3.254754486394E-02,0.406677626797,
    13.24081623752));
#454 = CARTESIAN_POINT('',(-2.56558779414E-02,0.361819003223,
    13.213632647114));
#455 = CARTESIAN_POINT('',(-1.974547792538E-02,0.316847526052,
    13.186441666739));
#456 = CARTESIAN_POINT('',(-1.238509746228E-02,0.249544920871,
    13.145821392118));
#457 = CARTESIAN_POINT('',(-1.019208568724E-02,0.227282092069,
    13.132396567869));
#458 = CARTESIAN_POINT('',(-8.238503727338E-03,0.204999982577,
    13.118970483048));
#459 = CARTESIAN_POINT('',(-6.524458953656E-03,0.182701304162,
    13.105543315579));
#460 = CARTESIAN_POINT('',(-5.050037537228E-03,0.160388766617,
    13.092115242913));
#461 = CARTESIAN_POINT('',(-3.197684782031E-03,0.126898656929,
    13.071969288655));
#462 = CARTESIAN_POINT('',(-2.640036350152E-03,0.115729446029,
    13.065251953091));
#463 = CARTESIAN_POINT('',(-2.142367291435E-03,0.104557783992,
    13.058534457497));
#464 = CARTESIAN_POINT('',(-1.704684424987E-03,9.338400968808E-02,
    13.051816824018));
#465 = CARTESIAN_POINT('',(-1.326993250987E-03,8.220846192217E-02,
    13.045099074783));
#466 = CARTESIAN_POINT('',(-8.410929451864E-04,6.511378283155E-02,
    13.034824444011));
#467 = CARTESIAN_POINT('',(-6.897039124918E-04,5.919560824623E-02,
    13.03126758431));
#468 = CARTESIAN_POINT('',(-5.551325504539E-04,5.327701541484E-02,
    13.027710661778));
#469 = CARTESIAN_POINT('',(-4.373802739687E-04,4.735806407601E-02,
    13.024153685389));
#470 = CARTESIAN_POINT('',(-3.364482149812E-04,4.143881397383E-02,
    13.02059666412));
#471 = CARTESIAN_POINT('',(-1.677281252266E-04,2.956478056482E-02,
    13.013461484903));
#472 = CARTESIAN_POINT('',(-1.014644207542E-04,2.368771242192E-02,
    13.009930027321));
#473 = CARTESIAN_POINT('',(-5.073084006124E-05,1.782868051126E-02,
    13.006409484603));
#474 = CARTESIAN_POINT('',(-1.644546677534E-05,1.186128599714E-02,
    13.002823883748));
#475 = CARTESIAN_POINT('',(2.85919E-12,5.798667921598E-03,
    12.999181096059));
#476 = CARTESIAN_POINT('',(0.,2.885624384966E-15,12.995696904862));
#477 = CONICAL_SURFACE('',#478,5.,1.029744258677);
#478 = AXIS2_PLACEMENT_3D('',#479,#480,#481);
#479 = CARTESIAN_POINT('',(0.,0.,16.));
#480 = DIRECTION('',(0.,1.12044604925E-16,1.));
#481 = DIRECTION('',(1.,0.,0.));
#482 = ADVANCED_FACE('',(#483),#543,.F.);
#483 = FACE_BOUND('',#484,.T.);
#484 = EDGE_LOOP('',(#485,#492,#493));
#485 = ORIENTED_EDGE('',*,*,#486,.T.);
#486 = EDGE_CURVE('',#400,#390,#487,.T.);
#487 = CIRCLE('',#488,5.);
#488 = AXIS2_PLACEMENT_3D('',#489,#490,#491);
#489 = CARTESIAN_POINT('',(0.,1.432713678801E-15,16.));
#490 = DIRECTION('',(-0.,1.12044604925E-16,1.));
#491 = DIRECTION('',(1.,0.,0.));
#492 = ORIENTED_EDGE('',*,*,#389,.T.);
#493 = ORIENTED_EDGE('',*,*,#494,.T.);
#494 = EDGE_CURVE('',#392,#400,#495,.T.);
#495 = B_SPLINE_CURVE_WITH_KNOTS('',6,(#496,#497,#498,#499,#500,#501,
    #502,#503,#504,#505,#506,#507,#508,#509,#510,#511,#512,#513,#514,
    #515,#516,#517,#518,#519,#520,#521,#522,#523,#524,#525,#526,#527,
    #528,#529,#530,#531,#532,#533,#534,#535,#536,#537,#538,#539,#540,
    #541,#542),.UNSPECIFIED.,.F.,.F.,(7,5,5,5,5,5,5,5,5,7),(0.,
    1.05426344905E-02,0.171913050798,0.333330615884,0.449571485444,
    0.587208111643,0.741965775595,0.847539743147,0.89958147,1.),
  .UNSPECIFIED.);
#496 = CARTESIAN_POINT('',(0.,2.875624384966E-15,12.995696904862));
#497 = CARTESIAN_POINT('',(2.05281362E-09,-1.084117590503E-02,
    13.002210940527));
#498 = CARTESIAN_POINT('',(-6.137550691487E-05,-2.221429935756E-02,
    13.009044610732));
#499 = CARTESIAN_POINT('',(-1.816249051322E-04,-3.361050966289E-02,
    13.015892327442));
#500 = CARTESIAN_POINT('',(-3.602216347948E-04,-4.480342657583E-02,
    13.022618246001));
#501 = CARTESIAN_POINT('',(-5.98624455869E-04,-5.584915030067E-02,
    13.029256265128));
#502 = CARTESIAN_POINT('',(-5.517483525282E-03,-0.239086657839,
    13.139386213754));
#503 = CARTESIAN_POINT('',(-2.434161739662E-02,-0.410763396338,
    13.242739761284));
#504 = CARTESIAN_POINT('',(-5.735816441935E-02,-0.580888288387,
    13.345993836435));
#505 = CARTESIAN_POINT('',(-0.104480204469,-0.748221351876,
    13.449065263006));
#506 = CARTESIAN_POINT('',(-0.165541652103,-0.911502823198,
    13.551866057794));
#507 = CARTESIAN_POINT('',(-0.315061185371,-1.227433662526,
    13.756773805946));
#508 = CARTESIAN_POINT('',(-0.403523585801,-1.380072503849,
    13.858875674103));
#509 = CARTESIAN_POINT('',(-0.505426276624,-1.526075831623,
    13.960521287799));
#510 = CARTESIAN_POINT('',(-0.620419913898,-1.664104776238,
    14.061601593756));
#511 = CARTESIAN_POINT('',(-0.74803546463,-1.792763213315,
    14.161990586302));
#512 = CARTESIAN_POINT('',(-0.988211351965,-1.995446097533,
    14.333242025423));
#513 = CARTESIAN_POINT('',(-1.094984634196,-2.074679491837,
    14.404501491123));
#514 = CARTESIAN_POINT('',(-1.207753294326,-2.147748696895,
    14.475273685982));
#515 = CARTESIAN_POINT('',(-1.326239150273,-2.214083162469,
    14.545494348727));
#516 = CARTESIAN_POINT('',(-1.45010665947,-2.273088888341,
    14.615088882191));
#517 = CARTESIAN_POINT('',(-1.731519132079,-2.384610762168,
    14.76553716926));
#518 = CARTESIAN_POINT('',(-1.891051603067,-2.433927206542,
    14.846097582151));
#519 = CARTESIAN_POINT('',(-2.056898196159,-2.471087399984,
    14.925523118445));
#520 = CARTESIAN_POINT('',(-2.228225106379,-2.495002267992,
    15.003632740204));
#521 = CARTESIAN_POINT('',(-2.403978872506,-2.504558994331,
    15.080205395573));
#522 = CARTESIAN_POINT('',(-2.78400550783,-2.491955549127,15.23905708702
    ));
#523 = CARTESIAN_POINT('',(-2.989039631434,-2.465704053116,
    15.320833244106));
#524 = CARTESIAN_POINT('',(-3.196180156794,-2.41828600328,
    15.399964212414));
#525 = CARTESIAN_POINT('',(-3.402967779355,-2.348055676321,
    15.475915331231));
#526 = CARTESIAN_POINT('',(-3.606214425447,-2.253643558397,
    15.548023770446));
#527 = CARTESIAN_POINT('',(-3.935625755008,-2.052673114173,
    15.661514159304));
#528 = CARTESIAN_POINT('',(-4.06571891503,-1.959535640059,
    15.705364218178));
#529 = CARTESIAN_POINT('',(-4.191041116885,-1.854523231293,
    15.746772186637));
#530 = CARTESIAN_POINT('',(-4.310086169698,-1.737591450671,
    15.785415157519));
#531 = CARTESIAN_POINT('',(-4.421164864149,-1.608997456501,
    15.82093464978));
#532 = CARTESIAN_POINT('',(-4.572515662322,-1.400680954247,
    15.86874502315));
#533 = CARTESIAN_POINT('',(-4.620128708531,-1.329244304392,
    15.883680906872));
#534 = CARTESIAN_POINT('',(-4.665171322778,-1.255245158011,
    15.897721272431));
#535 = CARTESIAN_POINT('',(-4.707431543981,-1.178803756164,
    15.910820457218));
#536 = CARTESIAN_POINT('',(-4.74670300643,-1.100073312041,15.92293391296
    ));
#537 = CARTESIAN_POINT('',(-4.852429069116,-0.863279707735,
    15.955410475138));
#538 = CARTESIAN_POINT('',(-4.910256467156,-0.699416681587,
    15.972986840815));
#539 = CARTESIAN_POINT('',(-4.954792236641,-0.529163268646,
    15.98641833873));
#540 = CARTESIAN_POINT('',(-4.98493713415,-0.354357308089,15.99547463092
    ));
#541 = CARTESIAN_POINT('',(-5.,-0.177144701995,16.));
#542 = CARTESIAN_POINT('',(-5.,1.162713678801E-15,16.));
#543 = CONICAL_SURFACE('',#544,5.,1.029744258677);
#544 = AXIS2_PLACEMENT_3D('',#545,#546,#547);
#545 = CARTESIAN_POINT('',(0.,0.,16.));
#546 = DIRECTION('',(0.,1.12044604925E-16,1.));
#547 = DIRECTION('',(1.,0.,0.));
#548 = ADVANCED_FACE('',(#549),#569,.F.);
#549 = FACE_BOUND('',#550,.T.);
#550 = EDGE_LOOP('',(#551,#559,#566,#567,#568));
#551 = ORIENTED_EDGE('',*,*,#552,.F.);
#552 = EDGE_CURVE('',#553,#400,#555,.T.);
#553 = VERTEX_POINT('',#554);
#554 = CARTESIAN_POINT('',(-5.,0.,0.));
#555 = LINE('',#556,#557);
#556 = CARTESIAN_POINT('',(-5.,0.,0.));
#557 = VECTOR('',#558,1.);
#558 = DIRECTION('',(6.E-17,1.12044604925E-16,1.));
#559 = ORIENTED_EDGE('',*,*,#560,.T.);
#560 = EDGE_CURVE('',#553,#553,#561,.T.);
#561 = CIRCLE('',#562,2.5);
#562 = AXIS2_PLACEMENT_3D('',#563,#564,#565);
#563 = CARTESIAN_POINT('',(-2.5,0.,0.));
#564 = DIRECTION('',(-0.,-1.12044604925E-16,-1.));
#565 = DIRECTION('',(-1.,0.,0.));
#566 = ORIENTED_EDGE('',*,*,#552,.T.);
#567 = ORIENTED_EDGE('',*,*,#494,.F.);
#568 = ORIENTED_EDGE('',*,*,#408,.F.);
#569 = CYLINDRICAL_SURFACE('',#570,2.5);
#570 = AXIS2_PLACEMENT_3D('',#571,#572,#573);
#571 = CARTESIAN_POINT('',(-2.5,0.,0.));
#572 = DIRECTION('',(0.,1.12044604925E-16,1.));
#573 = DIRECTION('',(-1.,0.,0.));
#574 = ADVANCED_FACE('',(#575),#602,.T.);
#575 = FACE_BOUND('',#576,.T.);
#576 = EDGE_LOOP('',(#577,#587,#594,#595));
#577 = ORIENTED_EDGE('',*,*,#578,.F.);
#578 = EDGE_CURVE('',#579,#581,#583,.T.);
#579 = VERTEX_POINT('',#580);
#580 = CARTESIAN_POINT('',(6.,1.33226762955E-14,60.));
#581 = VERTEX_POINT('',#582);
#582 = CARTESIAN_POINT('',(6.75,1.366133814775E-14,30.));
#583 = LINE('',#584,#585);
#584 = CARTESIAN_POINT('',(6.,1.33226762955E-14,60.));
#585 = VECTOR('',#586,1.);
#586 = DIRECTION('',(2.49921911602E-02,-2.219752484951E-16,
    -0.999687646408));
#587 = ORIENTED_EDGE('',*,*,#588,.T.);
#588 = EDGE_CURVE('',#579,#579,#589,.T.);
#589 = CIRCLE('',#590,6.);
#590 = AXIS2_PLACEMENT_3D('',#591,#592,#593);
#591 = CARTESIAN_POINT('',(0.,1.99826762955E-14,60.));
#592 = DIRECTION('',(0.,-3.32044604925E-16,-1.));
#593 = DIRECTION('',(1.,0.,0.));
#594 = ORIENTED_EDGE('',*,*,#578,.T.);
#595 = ORIENTED_EDGE('',*,*,#596,.F.);
#596 = EDGE_CURVE('',#581,#581,#597,.T.);
#597 = CIRCLE('',#598,6.75);
#598 = AXIS2_PLACEMENT_3D('',#599,#600,#601);
#599 = CARTESIAN_POINT('',(0.,9.991338147751E-15,30.));
#600 = DIRECTION('',(0.,-3.32044604925E-16,-1.));
#601 = DIRECTION('',(1.,0.,0.));
#602 = CONICAL_SURFACE('',#603,6.,2.499479361892E-02);
#603 = AXIS2_PLACEMENT_3D('',#604,#605,#606);
#604 = CARTESIAN_POINT('',(0.,1.99826762955E-14,60.));
#605 = DIRECTION('',(0.,-3.32044604925E-16,-1.));
#606 = DIRECTION('',(1.,0.,0.));
#607 = ADVANCED_FACE('',(#608,#642,#653,#664,#667,#678,#689,#700),#711,
  .T.);
#608 = FACE_BOUND('',#609,.T.);
#609 = EDGE_LOOP('',(#610,#620,#628,#636));
#610 = ORIENTED_EDGE('',*,*,#611,.F.);
#611 = EDGE_CURVE('',#612,#614,#616,.T.);
#612 = VERTEX_POINT('',#613);
#613 = CARTESIAN_POINT('',(-17.5,17.5,30.));
#614 = VERTEX_POINT('',#615);
#615 = CARTESIAN_POINT('',(62.5,17.5,30.));
#616 = LINE('',#617,#618);
#617 = CARTESIAN_POINT('',(0.,17.5,30.));
#618 = VECTOR('',#619,1.);
#619 = DIRECTION('',(1.,0.,0.));
#620 = ORIENTED_EDGE('',*,*,#621,.T.);
#621 = EDGE_CURVE('',#612,#622,#624,.T.);
#622 = VERTEX_POINT('',#623);
#623 = CARTESIAN_POINT('',(-17.5,-17.5,30.));
#624 = LINE('',#625,#626);
#625 = CARTESIAN_POINT('',(-17.5,17.5,30.));
#626 = VECTOR('',#627,1.);
#627 = DIRECTION('',(0.,-1.,2.22044604925E-16));
#628 = ORIENTED_EDGE('',*,*,#629,.T.);
#629 = EDGE_CURVE('',#622,#630,#632,.T.);
#630 = VERTEX_POINT('',#631);
#631 = CARTESIAN_POINT('',(62.5,-17.5,30.));
#632 = LINE('',#633,#634);
#633 = CARTESIAN_POINT('',(-17.5,-17.5,30.));
#634 = VECTOR('',#635,1.);
#635 = DIRECTION('',(1.,0.,0.));
#636 = ORIENTED_EDGE('',*,*,#637,.F.);
#637 = EDGE_CURVE('',#614,#630,#638,.T.);
#638 = LINE('',#639,#640);
#639 = CARTESIAN_POINT('',(62.5,17.5,30.));
#640 = VECTOR('',#641,1.);
#641 = DIRECTION('',(0.,-1.,2.22044604925E-16));
#642 = FACE_BOUND('',#643,.T.);
#643 = EDGE_LOOP('',(#644));
#644 = ORIENTED_EDGE('',*,*,#645,.F.);
#645 = EDGE_CURVE('',#646,#646,#648,.T.);
#646 = VERTEX_POINT('',#647);
#647 = CARTESIAN_POINT('',(34.5,-13.75,30.));
#648 = CIRCLE('',#649,1.25);
#649 = AXIS2_PLACEMENT_3D('',#650,#651,#652);
#650 = CARTESIAN_POINT('',(33.25,-13.75,30.));
#651 = DIRECTION('',(-0.,1.12044604925E-16,1.));
#652 = DIRECTION('',(1.,0.,0.));
#653 = FACE_BOUND('',#654,.T.);
#654 = EDGE_LOOP('',(#655));
#655 = ORIENTED_EDGE('',*,*,#656,.F.);
#656 = EDGE_CURVE('',#657,#657,#659,.T.);
#657 = VERTEX_POINT('',#658);
#658 = CARTESIAN_POINT('',(58.,-13.75,30.));
#659 = CIRCLE('',#660,1.25);
#660 = AXIS2_PLACEMENT_3D('',#661,#662,#663);
#661 = CARTESIAN_POINT('',(56.75,-13.75,30.));
#662 = DIRECTION('',(-0.,1.12044604925E-16,1.));
#663 = DIRECTION('',(1.,0.,0.));
#664 = FACE_BOUND('',#665,.T.);
#665 = EDGE_LOOP('',(#666));
#666 = ORIENTED_EDGE('',*,*,#596,.T.);
#667 = FACE_BOUND('',#668,.T.);
#668 = EDGE_LOOP('',(#669));
#669 = ORIENTED_EDGE('',*,*,#670,.T.);
#670 = EDGE_CURVE('',#671,#671,#673,.T.);
#671 = VERTEX_POINT('',#672);
#672 = CARTESIAN_POINT('',(27.5,7.5,30.));
#673 = CIRCLE('',#674,2.5);
#674 = AXIS2_PLACEMENT_3D('',#675,#676,#677);
#675 = CARTESIAN_POINT('',(25.,7.5,30.));
#676 = DIRECTION('',(0.,-1.110223024625E-16,-1.));
#677 = DIRECTION('',(1.,0.,0.));
#678 = FACE_BOUND('',#679,.T.);
#679 = EDGE_LOOP('',(#680));
#680 = ORIENTED_EDGE('',*,*,#681,.F.);
#681 = EDGE_CURVE('',#682,#682,#684,.T.);
#682 = VERTEX_POINT('',#683);
#683 = CARTESIAN_POINT('',(45.,15.,30.));
#684 = CIRCLE('',#685,15.);
#685 = AXIS2_PLACEMENT_3D('',#686,#687,#688);
#686 = CARTESIAN_POINT('',(45.,1.338147750941E-18,30.));
#687 = DIRECTION('',(1.1E-16,2.044604925031E-18,1.));
#688 = DIRECTION('',(0.,1.,-2.044604925031E-18));
#689 = FACE_BOUND('',#690,.T.);
#690 = EDGE_LOOP('',(#691));
#691 = ORIENTED_EDGE('',*,*,#692,.F.);
#692 = EDGE_CURVE('',#693,#693,#695,.T.);
#693 = VERTEX_POINT('',#694);
#694 = CARTESIAN_POINT('',(34.5,13.75,30.));
#695 = CIRCLE('',#696,1.25);
#696 = AXIS2_PLACEMENT_3D('',#697,#698,#699);
#697 = CARTESIAN_POINT('',(33.25,13.75,30.));
#698 = DIRECTION('',(-0.,1.12044604925E-16,1.));
#699 = DIRECTION('',(1.,0.,0.));
#700 = FACE_BOUND('',#701,.T.);
#701 = EDGE_LOOP('',(#702));
#702 = ORIENTED_EDGE('',*,*,#703,.F.);
#703 = EDGE_CURVE('',#704,#704,#706,.T.);
#704 = VERTEX_POINT('',#705);
#705 = CARTESIAN_POINT('',(58.,13.75,30.));
#706 = CIRCLE('',#707,1.25);
#707 = AXIS2_PLACEMENT_3D('',#708,#709,#710);
#708 = CARTESIAN_POINT('',(56.75,13.75,30.));
#709 = DIRECTION('',(-0.,1.12044604925E-16,1.));
#710 = DIRECTION('',(1.,0.,0.));
#711 = PLANE('',#712);
#712 = AXIS2_PLACEMENT_3D('',#713,#714,#715);
#713 = CARTESIAN_POINT('',(22.5,3.552713678801E-15,30.));
#714 = DIRECTION('',(0.,2.22044604925E-16,1.));
#715 = DIRECTION('',(1.,0.,0.));
#716 = ADVANCED_FACE('',(#717,#720),#740,.F.);
#717 = FACE_BOUND('',#718,.T.);
#718 = EDGE_LOOP('',(#719));
#719 = ORIENTED_EDGE('',*,*,#588,.F.);
#720 = FACE_BOUND('',#721,.T.);
#721 = EDGE_LOOP('',(#722,#733));
#722 = ORIENTED_EDGE('',*,*,#723,.F.);
#723 = EDGE_CURVE('',#724,#726,#728,.T.);
#724 = VERTEX_POINT('',#725);
#725 = CARTESIAN_POINT('',(5.,6.322676295502E-15,60.));
#726 = VERTEX_POINT('',#727);
#727 = CARTESIAN_POINT('',(-5.,2.003226762955E-13,60.));
#728 = CIRCLE('',#729,5.);
#729 = AXIS2_PLACEMENT_3D('',#730,#731,#732);
#730 = CARTESIAN_POINT('',(0.,6.322676295502E-15,60.));
#731 = DIRECTION('',(-0.,1.12044604925E-16,1.));
#732 = DIRECTION('',(1.,0.,0.));
#733 = ORIENTED_EDGE('',*,*,#734,.F.);
#734 = EDGE_CURVE('',#726,#724,#735,.T.);
#735 = CIRCLE('',#736,5.);
#736 = AXIS2_PLACEMENT_3D('',#737,#738,#739);
#737 = CARTESIAN_POINT('',(0.,6.322676295502E-15,60.));
#738 = DIRECTION('',(-0.,1.12044604925E-16,1.));
#739 = DIRECTION('',(1.,0.,0.));
#740 = PLANE('',#741);
#741 = AXIS2_PLACEMENT_3D('',#742,#743,#744);
#742 = CARTESIAN_POINT('',(0.,1.99826762955E-14,60.));
#743 = DIRECTION('',(0.,-3.32044604925E-16,-1.));
#744 = DIRECTION('',(1.,0.,0.));
#745 = ADVANCED_FACE('',(#746,#803,#814,#825),#836,.T.);
#746 = FACE_BOUND('',#747,.T.);
#747 = EDGE_LOOP('',(#748,#758,#764,#765,#773,#781,#789,#797));
#748 = ORIENTED_EDGE('',*,*,#749,.T.);
#749 = EDGE_CURVE('',#750,#752,#754,.T.);
#750 = VERTEX_POINT('',#751);
#751 = CARTESIAN_POINT('',(62.5,12.5,4.5));
#752 = VERTEX_POINT('',#753);
#753 = CARTESIAN_POINT('',(62.5,17.5,4.5));
#754 = LINE('',#755,#756);
#755 = CARTESIAN_POINT('',(62.5,12.5,4.5));
#756 = VECTOR('',#757,1.);
#757 = DIRECTION('',(0.,1.,-2.22044604925E-16));
#758 = ORIENTED_EDGE('',*,*,#759,.T.);
#759 = EDGE_CURVE('',#752,#614,#760,.T.);
#760 = LINE('',#761,#762);
#761 = CARTESIAN_POINT('',(62.5,17.5,-1.945780586188E-15));
#762 = VECTOR('',#763,1.);
#763 = DIRECTION('',(0.,1.12044604925E-16,1.));
#764 = ORIENTED_EDGE('',*,*,#637,.T.);
#765 = ORIENTED_EDGE('',*,*,#766,.F.);
#766 = EDGE_CURVE('',#767,#630,#769,.T.);
#767 = VERTEX_POINT('',#768);
#768 = CARTESIAN_POINT('',(62.5,-17.5,4.5));
#769 = LINE('',#770,#771);
#770 = CARTESIAN_POINT('',(62.5,-17.5,1.945780586188E-15));
#771 = VECTOR('',#772,1.);
#772 = DIRECTION('',(0.,1.12044604925E-16,1.));
#773 = ORIENTED_EDGE('',*,*,#774,.F.);
#774 = EDGE_CURVE('',#775,#767,#777,.T.);
#775 = VERTEX_POINT('',#776);
#776 = CARTESIAN_POINT('',(62.5,-12.5,4.5));
#777 = LINE('',#778,#779);
#778 = CARTESIAN_POINT('',(62.5,-12.5,4.5));
#779 = VECTOR('',#780,1.);
#780 = DIRECTION('',(0.,-1.,2.22044604925E-16));
#781 = ORIENTED_EDGE('',*,*,#782,.T.);
#782 = EDGE_CURVE('',#775,#783,#785,.T.);
#783 = VERTEX_POINT('',#784);
#784 = CARTESIAN_POINT('',(62.5,-12.5,4.775557561563E-15));
#785 = LINE('',#786,#787);
#786 = CARTESIAN_POINT('',(62.5,-12.5,4.5));
#787 = VECTOR('',#788,1.);
#788 = DIRECTION('',(-0.,-1.12044604925E-16,-1.));
#789 = ORIENTED_EDGE('',*,*,#790,.F.);
#790 = EDGE_CURVE('',#791,#783,#793,.T.);
#791 = VERTEX_POINT('',#792);
#792 = CARTESIAN_POINT('',(62.5,12.5,-3.775557561563E-15));
#793 = LINE('',#794,#795);
#794 = CARTESIAN_POINT('',(62.5,17.5,-3.885780586188E-15));
#795 = VECTOR('',#796,1.);
#796 = DIRECTION('',(0.,-1.,2.22044604925E-16));
#797 = ORIENTED_EDGE('',*,*,#798,.F.);
#798 = EDGE_CURVE('',#750,#791,#799,.T.);
#799 = LINE('',#800,#801);
#800 = CARTESIAN_POINT('',(62.5,12.5,4.5));
#801 = VECTOR('',#802,1.);
#802 = DIRECTION('',(-0.,-1.12044604925E-16,-1.));
#803 = FACE_BOUND('',#804,.T.);
#804 = EDGE_LOOP('',(#805));
#805 = ORIENTED_EDGE('',*,*,#806,.F.);
#806 = EDGE_CURVE('',#807,#807,#809,.T.);
#807 = VERTEX_POINT('',#808);
#808 = CARTESIAN_POINT('',(62.5,3.4,20.));
#809 = CIRCLE('',#810,3.4);
#810 = AXIS2_PLACEMENT_3D('',#811,#812,#813);
#811 = CARTESIAN_POINT('',(62.5,-3.552713678801E-15,20.));
#812 = DIRECTION('',(1.,1.1E-16,-1.1E-16));
#813 = DIRECTION('',(-1.1E-16,1.,-2.22044604925E-16));
#814 = FACE_BOUND('',#815,.T.);
#815 = EDGE_LOOP('',(#816));
#816 = ORIENTED_EDGE('',*,*,#817,.F.);
#817 = EDGE_CURVE('',#818,#818,#820,.T.);
#818 = VERTEX_POINT('',#819);
#819 = CARTESIAN_POINT('',(62.5,14.1,10.));
#820 = CIRCLE('',#821,1.6);
#821 = AXIS2_PLACEMENT_3D('',#822,#823,#824);
#822 = CARTESIAN_POINT('',(62.5,12.5,10.));
#823 = DIRECTION('',(1.,1.110223024625E-16,-1.110223024625E-16));
#824 = DIRECTION('',(-1.110223024625E-16,1.,-3.330669073875E-16));
#825 = FACE_BOUND('',#826,.T.);
#826 = EDGE_LOOP('',(#827));
#827 = ORIENTED_EDGE('',*,*,#828,.F.);
#828 = EDGE_CURVE('',#829,#829,#831,.T.);
#829 = VERTEX_POINT('',#830);
#830 = CARTESIAN_POINT('',(62.5,-10.9,10.));
#831 = CIRCLE('',#832,1.6);
#832 = AXIS2_PLACEMENT_3D('',#833,#834,#835);
#833 = CARTESIAN_POINT('',(62.5,-12.5,10.));
#834 = DIRECTION('',(1.,1.110223024625E-16,-1.110223024625E-16));
#835 = DIRECTION('',(-1.110223024625E-16,1.,-3.330669073875E-16));
#836 = PLANE('',#837);
#837 = AXIS2_PLACEMENT_3D('',#838,#839,#840);
#838 = CARTESIAN_POINT('',(62.5,17.5,-1.945780586188E-15));
#839 = DIRECTION('',(1.,0.,0.));
#840 = DIRECTION('',(0.,-1.,1.12044604925E-16));
#841 = ADVANCED_FACE('',(#842),#899,.F.);
#842 = FACE_BOUND('',#843,.F.);
#843 = EDGE_LOOP('',(#844,#854,#860,#861,#869,#877,#885,#893));
#844 = ORIENTED_EDGE('',*,*,#845,.F.);
#845 = EDGE_CURVE('',#846,#848,#850,.T.);
#846 = VERTEX_POINT('',#847);
#847 = CARTESIAN_POINT('',(-17.5,17.5,4.5));
#848 = VERTEX_POINT('',#849);
#849 = CARTESIAN_POINT('',(-17.5,12.5,4.5));
#850 = LINE('',#851,#852);
#851 = CARTESIAN_POINT('',(-17.5,8.75,4.5));
#852 = VECTOR('',#853,1.);
#853 = DIRECTION('',(0.,-1.,1.12044604925E-16));
#854 = ORIENTED_EDGE('',*,*,#855,.T.);
#855 = EDGE_CURVE('',#846,#612,#856,.T.);
#856 = LINE('',#857,#858);
#857 = CARTESIAN_POINT('',(-17.5,17.5,-1.945780586188E-15));
#858 = VECTOR('',#859,1.);
#859 = DIRECTION('',(0.,1.12044604925E-16,1.));
#860 = ORIENTED_EDGE('',*,*,#621,.T.);
#861 = ORIENTED_EDGE('',*,*,#862,.F.);
#862 = EDGE_CURVE('',#863,#622,#865,.T.);
#863 = VERTEX_POINT('',#864);
#864 = CARTESIAN_POINT('',(-17.5,-17.5,4.5));
#865 = LINE('',#866,#867);
#866 = CARTESIAN_POINT('',(-17.5,-17.5,1.945780586188E-15));
#867 = VECTOR('',#868,1.);
#868 = DIRECTION('',(0.,1.12044604925E-16,1.));
#869 = ORIENTED_EDGE('',*,*,#870,.F.);
#870 = EDGE_CURVE('',#871,#863,#873,.T.);
#871 = VERTEX_POINT('',#872);
#872 = CARTESIAN_POINT('',(-17.5,-12.5,4.5));
#873 = LINE('',#874,#875);
#874 = CARTESIAN_POINT('',(-17.5,8.75,4.5));
#875 = VECTOR('',#876,1.);
#876 = DIRECTION('',(0.,-1.,1.12044604925E-16));
#877 = ORIENTED_EDGE('',*,*,#878,.T.);
#878 = EDGE_CURVE('',#871,#879,#881,.T.);
#879 = VERTEX_POINT('',#880);
#880 = CARTESIAN_POINT('',(-17.5,-12.5,3.775557561563E-15));
#881 = LINE('',#882,#883);
#882 = CARTESIAN_POINT('',(-17.5,-12.5,2.25));
#883 = VECTOR('',#884,1.);
#884 = DIRECTION('',(0.,-1.12044604925E-16,-1.));
#885 = ORIENTED_EDGE('',*,*,#886,.F.);
#886 = EDGE_CURVE('',#887,#879,#889,.T.);
#887 = VERTEX_POINT('',#888);
#888 = CARTESIAN_POINT('',(-17.5,12.5,-3.775557561563E-15));
#889 = LINE('',#890,#891);
#890 = CARTESIAN_POINT('',(-17.5,17.5,-3.885780586188E-15));
#891 = VECTOR('',#892,1.);
#892 = DIRECTION('',(0.,-1.,2.22044604925E-16));
#893 = ORIENTED_EDGE('',*,*,#894,.F.);
#894 = EDGE_CURVE('',#848,#887,#895,.T.);
#895 = LINE('',#896,#897);
#896 = CARTESIAN_POINT('',(-17.5,12.5,2.25));
#897 = VECTOR('',#898,1.);
#898 = DIRECTION('',(0.,-1.12044604925E-16,-1.));
#899 = PLANE('',#900);
#900 = AXIS2_PLACEMENT_3D('',#901,#902,#903);
#901 = CARTESIAN_POINT('',(-17.5,17.5,-1.945780586188E-15));
#902 = DIRECTION('',(1.,0.,0.));
#903 = DIRECTION('',(0.,-1.,1.12044604925E-16));
#904 = ADVANCED_FACE('',(#905),#924,.F.);
#905 = FACE_BOUND('',#906,.T.);
#906 = EDGE_LOOP('',(#907,#915,#916,#917));
#907 = ORIENTED_EDGE('',*,*,#908,.F.);
#908 = EDGE_CURVE('',#646,#909,#911,.T.);
#909 = VERTEX_POINT('',#910);
#910 = CARTESIAN_POINT('',(34.5,-13.75,20.));
#911 = LINE('',#912,#913);
#912 = CARTESIAN_POINT('',(34.5,-13.75,30.));
#913 = VECTOR('',#914,1.);
#914 = DIRECTION('',(-7.E-17,-1.12044604925E-16,-1.));
#915 = ORIENTED_EDGE('',*,*,#645,.T.);
#916 = ORIENTED_EDGE('',*,*,#908,.T.);
#917 = ORIENTED_EDGE('',*,*,#918,.F.);
#918 = EDGE_CURVE('',#909,#909,#919,.T.);
#919 = CIRCLE('',#920,1.25);
#920 = AXIS2_PLACEMENT_3D('',#921,#922,#923);
#921 = CARTESIAN_POINT('',(33.25,-13.75,20.));
#922 = DIRECTION('',(-0.,1.12044604925E-16,1.));
#923 = DIRECTION('',(1.,0.,0.));
#924 = CYLINDRICAL_SURFACE('',#925,1.25);
#925 = AXIS2_PLACEMENT_3D('',#926,#927,#928);
#926 = CARTESIAN_POINT('',(33.25,-13.75,30.));
#927 = DIRECTION('',(-0.,-1.12044604925E-16,-1.));
#928 = DIRECTION('',(1.,0.,0.));
#929 = ADVANCED_FACE('',(#930),#949,.F.);
#930 = FACE_BOUND('',#931,.T.);
#931 = EDGE_LOOP('',(#932,#940,#941,#942));
#932 = ORIENTED_EDGE('',*,*,#933,.F.);
#933 = EDGE_CURVE('',#657,#934,#936,.T.);
#934 = VERTEX_POINT('',#935);
#935 = CARTESIAN_POINT('',(58.,-13.75,20.));
#936 = LINE('',#937,#938);
#937 = CARTESIAN_POINT('',(58.,-13.75,30.));
#938 = VECTOR('',#939,1.);
#939 = DIRECTION('',(-7.E-17,-1.12044604925E-16,-1.));
#940 = ORIENTED_EDGE('',*,*,#656,.T.);
#941 = ORIENTED_EDGE('',*,*,#933,.T.);
#942 = ORIENTED_EDGE('',*,*,#943,.F.);
#943 = EDGE_CURVE('',#934,#934,#944,.T.);
#944 = CIRCLE('',#945,1.25);
#945 = AXIS2_PLACEMENT_3D('',#946,#947,#948);
#946 = CARTESIAN_POINT('',(56.75,-13.75,20.));
#947 = DIRECTION('',(-0.,1.12044604925E-16,1.));
#948 = DIRECTION('',(1.,0.,0.));
#949 = CYLINDRICAL_SURFACE('',#950,1.25);
#950 = AXIS2_PLACEMENT_3D('',#951,#952,#953);
#951 = CARTESIAN_POINT('',(56.75,-13.75,30.));
#952 = DIRECTION('',(-0.,-1.12044604925E-16,-1.));
#953 = DIRECTION('',(1.,0.,0.));
#954 = ADVANCED_FACE('',(#955),#974,.F.);
#955 = FACE_BOUND('',#956,.T.);
#956 = EDGE_LOOP('',(#957,#966,#972,#973));
#957 = ORIENTED_EDGE('',*,*,#958,.F.);
#958 = EDGE_CURVE('',#959,#959,#961,.T.);
#959 = VERTEX_POINT('',#960);
#960 = CARTESIAN_POINT('',(27.5,7.5,-8.326672684689E-16));
#961 = CIRCLE('',#962,2.5);
#962 = AXIS2_PLACEMENT_3D('',#963,#964,#965);
#963 = CARTESIAN_POINT('',(25.,7.5,-8.326672684689E-16));
#964 = DIRECTION('',(-0.,1.110223024625E-16,1.));
#965 = DIRECTION('',(1.,0.,0.));
#966 = ORIENTED_EDGE('',*,*,#967,.T.);
#967 = EDGE_CURVE('',#959,#671,#968,.T.);
#968 = LINE('',#969,#970);
#969 = CARTESIAN_POINT('',(27.5,7.5,-8.326672684689E-16));
#970 = VECTOR('',#971,1.);
#971 = DIRECTION('',(0.,1.110223024625E-16,1.));
#972 = ORIENTED_EDGE('',*,*,#670,.F.);
#973 = ORIENTED_EDGE('',*,*,#967,.F.);
#974 = CYLINDRICAL_SURFACE('',#975,2.5);
#975 = AXIS2_PLACEMENT_3D('',#976,#977,#978);
#976 = CARTESIAN_POINT('',(25.,7.5,-8.326672684689E-16));
#977 = DIRECTION('',(0.,-1.110223024625E-16,-1.));
#978 = DIRECTION('',(1.,0.,0.));
#979 = ADVANCED_FACE('',(#980),#999,.F.);
#980 = FACE_BOUND('',#981,.T.);
#981 = EDGE_LOOP('',(#982,#990,#991,#992));
#982 = ORIENTED_EDGE('',*,*,#983,.F.);
#983 = EDGE_CURVE('',#682,#984,#986,.T.);
#984 = VERTEX_POINT('',#985);
#985 = CARTESIAN_POINT('',(45.,15.,29.));
#986 = LINE('',#987,#988);
#987 = CARTESIAN_POINT('',(45.,15.,30.));
#988 = VECTOR('',#989,1.);
#989 = DIRECTION('',(0.,-2.22044604925E-16,-1.));
#990 = ORIENTED_EDGE('',*,*,#681,.T.);
#991 = ORIENTED_EDGE('',*,*,#983,.T.);
#992 = ORIENTED_EDGE('',*,*,#993,.F.);
#993 = EDGE_CURVE('',#984,#984,#994,.T.);
#994 = CIRCLE('',#995,15.);
#995 = AXIS2_PLACEMENT_3D('',#996,#997,#998);
#996 = CARTESIAN_POINT('',(45.,-7.064571740902E-19,29.));
#997 = DIRECTION('',(1.1E-16,2.044604925031E-18,1.));
#998 = DIRECTION('',(0.,1.,-2.044604925031E-18));
#999 = CYLINDRICAL_SURFACE('',#1000,15.);
#1000 = AXIS2_PLACEMENT_3D('',#1001,#1002,#1003);
#1001 = CARTESIAN_POINT('',(45.,1.338147750941E-18,30.));
#1002 = DIRECTION('',(-1.1E-16,-2.044604925031E-18,-1.));
#1003 = DIRECTION('',(0.,1.,-2.044604925031E-18));
#1004 = ADVANCED_FACE('',(#1005),#1024,.F.);
#1005 = FACE_BOUND('',#1006,.T.);
#1006 = EDGE_LOOP('',(#1007,#1015,#1016,#1017));
#1007 = ORIENTED_EDGE('',*,*,#1008,.F.);
#1008 = EDGE_CURVE('',#693,#1009,#1011,.T.);
#1009 = VERTEX_POINT('',#1010);
#1010 = CARTESIAN_POINT('',(34.5,13.75,20.));
#1011 = LINE('',#1012,#1013);
#1012 = CARTESIAN_POINT('',(34.5,13.75,30.));
#1013 = VECTOR('',#1014,1.);
#1014 = DIRECTION('',(-7.E-17,-1.12044604925E-16,-1.));
#1015 = ORIENTED_EDGE('',*,*,#692,.T.);
#1016 = ORIENTED_EDGE('',*,*,#1008,.T.);
#1017 = ORIENTED_EDGE('',*,*,#1018,.F.);
#1018 = EDGE_CURVE('',#1009,#1009,#1019,.T.);
#1019 = CIRCLE('',#1020,1.25);
#1020 = AXIS2_PLACEMENT_3D('',#1021,#1022,#1023);
#1021 = CARTESIAN_POINT('',(33.25,13.75,20.));
#1022 = DIRECTION('',(-0.,1.12044604925E-16,1.));
#1023 = DIRECTION('',(1.,0.,0.));
#1024 = CYLINDRICAL_SURFACE('',#1025,1.25);
#1025 = AXIS2_PLACEMENT_3D('',#1026,#1027,#1028);
#1026 = CARTESIAN_POINT('',(33.25,13.75,30.));
#1027 = DIRECTION('',(-0.,-1.12044604925E-16,-1.));
#1028 = DIRECTION('',(1.,0.,0.));
#1029 = ADVANCED_FACE('',(#1030),#1049,.F.);
#1030 = FACE_BOUND('',#1031,.T.);
#1031 = EDGE_LOOP('',(#1032,#1040,#1041,#1042));
#1032 = ORIENTED_EDGE('',*,*,#1033,.F.);
#1033 = EDGE_CURVE('',#704,#1034,#1036,.T.);
#1034 = VERTEX_POINT('',#1035);
#1035 = CARTESIAN_POINT('',(58.,13.75,20.));
#1036 = LINE('',#1037,#1038);
#1037 = CARTESIAN_POINT('',(58.,13.75,30.));
#1038 = VECTOR('',#1039,1.);
#1039 = DIRECTION('',(-7.E-17,-1.12044604925E-16,-1.));
#1040 = ORIENTED_EDGE('',*,*,#703,.T.);
#1041 = ORIENTED_EDGE('',*,*,#1033,.T.);
#1042 = ORIENTED_EDGE('',*,*,#1043,.F.);
#1043 = EDGE_CURVE('',#1034,#1034,#1044,.T.);
#1044 = CIRCLE('',#1045,1.25);
#1045 = AXIS2_PLACEMENT_3D('',#1046,#1047,#1048);
#1046 = CARTESIAN_POINT('',(56.75,13.75,20.));
#1047 = DIRECTION('',(-0.,1.12044604925E-16,1.));
#1048 = DIRECTION('',(1.,0.,0.));
#1049 = CYLINDRICAL_SURFACE('',#1050,1.25);
#1050 = AXIS2_PLACEMENT_3D('',#1051,#1052,#1053);
#1051 = CARTESIAN_POINT('',(56.75,13.75,30.));
#1052 = DIRECTION('',(-0.,-1.12044604925E-16,-1.));
#1053 = DIRECTION('',(1.,0.,0.));
#1054 = ADVANCED_FACE('',(#1055),#1071,.F.);
#1055 = FACE_BOUND('',#1056,.F.);
#1056 = EDGE_LOOP('',(#1057,#1058,#1064,#1065));
#1057 = ORIENTED_EDGE('',*,*,#749,.T.);
#1058 = ORIENTED_EDGE('',*,*,#1059,.T.);
#1059 = EDGE_CURVE('',#752,#846,#1060,.T.);
#1060 = LINE('',#1061,#1062);
#1061 = CARTESIAN_POINT('',(62.5,17.5,4.5));
#1062 = VECTOR('',#1063,1.);
#1063 = DIRECTION('',(-1.,0.,0.));
#1064 = ORIENTED_EDGE('',*,*,#845,.T.);
#1065 = ORIENTED_EDGE('',*,*,#1066,.T.);
#1066 = EDGE_CURVE('',#848,#750,#1067,.T.);
#1067 = LINE('',#1068,#1069);
#1068 = CARTESIAN_POINT('',(-50.,12.5,4.5));
#1069 = VECTOR('',#1070,1.);
#1070 = DIRECTION('',(1.,0.,0.));
#1071 = PLANE('',#1072);
#1072 = AXIS2_PLACEMENT_3D('',#1073,#1074,#1075);
#1073 = CARTESIAN_POINT('',(11.282392873298,9.992007221626E-16,4.5));
#1074 = DIRECTION('',(0.,2.22044604925E-16,1.));
#1075 = DIRECTION('',(1.,0.,0.));
#1076 = ADVANCED_FACE('',(#1077),#1088,.F.);
#1077 = FACE_BOUND('',#1078,.F.);
#1078 = EDGE_LOOP('',(#1079,#1080,#1081,#1087));
#1079 = ORIENTED_EDGE('',*,*,#1066,.F.);
#1080 = ORIENTED_EDGE('',*,*,#894,.T.);
#1081 = ORIENTED_EDGE('',*,*,#1082,.T.);
#1082 = EDGE_CURVE('',#887,#791,#1083,.T.);
#1083 = LINE('',#1084,#1085);
#1084 = CARTESIAN_POINT('',(-13.75,12.5,-4.355557561563E-15));
#1085 = VECTOR('',#1086,1.);
#1086 = DIRECTION('',(1.,0.,0.));
#1087 = ORIENTED_EDGE('',*,*,#798,.F.);
#1088 = PLANE('',#1089);
#1089 = AXIS2_PLACEMENT_3D('',#1090,#1091,#1092);
#1090 = CARTESIAN_POINT('',(-50.,12.5,4.5));
#1091 = DIRECTION('',(0.,-1.,1.12044604925E-16));
#1092 = DIRECTION('',(1.,0.,0.));
#1093 = ADVANCED_FACE('',(#1094,#1105,#1108,#1119),#1122,.F.);
#1094 = FACE_BOUND('',#1095,.F.);
#1095 = EDGE_LOOP('',(#1096,#1097,#1098,#1099));
#1096 = ORIENTED_EDGE('',*,*,#790,.F.);
#1097 = ORIENTED_EDGE('',*,*,#1082,.F.);
#1098 = ORIENTED_EDGE('',*,*,#886,.T.);
#1099 = ORIENTED_EDGE('',*,*,#1100,.T.);
#1100 = EDGE_CURVE('',#879,#783,#1101,.T.);
#1101 = LINE('',#1102,#1103);
#1102 = CARTESIAN_POINT('',(-13.75,-12.5,4.355557561563E-15));
#1103 = VECTOR('',#1104,1.);
#1104 = DIRECTION('',(1.,0.,0.));
#1105 = FACE_BOUND('',#1106,.F.);
#1106 = EDGE_LOOP('',(#1107));
#1107 = ORIENTED_EDGE('',*,*,#560,.T.);
#1108 = FACE_BOUND('',#1109,.F.);
#1109 = EDGE_LOOP('',(#1110));
#1110 = ORIENTED_EDGE('',*,*,#1111,.F.);
#1111 = EDGE_CURVE('',#1112,#1112,#1114,.T.);
#1112 = VERTEX_POINT('',#1113);
#1113 = CARTESIAN_POINT('',(55.,0.,0.));
#1114 = CIRCLE('',#1115,10.);
#1115 = AXIS2_PLACEMENT_3D('',#1116,#1117,#1118);
#1116 = CARTESIAN_POINT('',(45.,0.,0.));
#1117 = DIRECTION('',(-0.,1.12044604925E-16,1.));
#1118 = DIRECTION('',(1.,0.,0.));
#1119 = FACE_BOUND('',#1120,.F.);
#1120 = EDGE_LOOP('',(#1121));
#1121 = ORIENTED_EDGE('',*,*,#958,.F.);
#1122 = PLANE('',#1123);
#1123 = AXIS2_PLACEMENT_3D('',#1124,#1125,#1126);
#1124 = CARTESIAN_POINT('',(22.5,0.,0.));
#1125 = DIRECTION('',(0.,2.22044604925E-16,1.));
#1126 = DIRECTION('',(1.,0.,0.));
#1127 = ADVANCED_FACE('',(#1128),#1139,.T.);
#1128 = FACE_BOUND('',#1129,.T.);
#1129 = EDGE_LOOP('',(#1130,#1136,#1137,#1138));
#1130 = ORIENTED_EDGE('',*,*,#1131,.F.);
#1131 = EDGE_CURVE('',#871,#775,#1132,.T.);
#1132 = LINE('',#1133,#1134);
#1133 = CARTESIAN_POINT('',(-50.,-12.5,4.5));
#1134 = VECTOR('',#1135,1.);
#1135 = DIRECTION('',(1.,0.,0.));
#1136 = ORIENTED_EDGE('',*,*,#878,.T.);
#1137 = ORIENTED_EDGE('',*,*,#1100,.T.);
#1138 = ORIENTED_EDGE('',*,*,#782,.F.);
#1139 = PLANE('',#1140);
#1140 = AXIS2_PLACEMENT_3D('',#1141,#1142,#1143);
#1141 = CARTESIAN_POINT('',(-50.,-12.5,4.5));
#1142 = DIRECTION('',(0.,-1.,1.12044604925E-16));
#1143 = DIRECTION('',(1.,0.,0.));
#1144 = ADVANCED_FACE('',(#1145),#1156,.F.);
#1145 = FACE_BOUND('',#1146,.F.);
#1146 = EDGE_LOOP('',(#1147,#1153,#1154,#1155));
#1147 = ORIENTED_EDGE('',*,*,#1148,.F.);
#1148 = EDGE_CURVE('',#767,#863,#1149,.T.);
#1149 = LINE('',#1150,#1151);
#1150 = CARTESIAN_POINT('',(62.5,-17.5,4.5));
#1151 = VECTOR('',#1152,1.);
#1152 = DIRECTION('',(-1.,0.,0.));
#1153 = ORIENTED_EDGE('',*,*,#774,.F.);
#1154 = ORIENTED_EDGE('',*,*,#1131,.F.);
#1155 = ORIENTED_EDGE('',*,*,#870,.T.);
#1156 = PLANE('',#1157);
#1157 = AXIS2_PLACEMENT_3D('',#1158,#1159,#1160);
#1158 = CARTESIAN_POINT('',(11.282392873298,9.992007221626E-16,4.5));
#1159 = DIRECTION('',(0.,2.22044604925E-16,1.));
#1160 = DIRECTION('',(1.,0.,0.));
#1161 = ADVANCED_FACE('',(#1162),#1173,.F.);
#1162 = FACE_BOUND('',#1163,.T.);
#1163 = EDGE_LOOP('',(#1164,#1170,#1171,#1172));
#1164 = ORIENTED_EDGE('',*,*,#1165,.F.);
#1165 = EDGE_CURVE('',#807,#273,#1166,.T.);
#1166 = LINE('',#1167,#1168);
#1167 = CARTESIAN_POINT('',(62.5,3.4,20.));
#1168 = VECTOR('',#1169,1.);
#1169 = DIRECTION('',(-1.,-1.8E-16,1.1E-16));
#1170 = ORIENTED_EDGE('',*,*,#806,.T.);
#1171 = ORIENTED_EDGE('',*,*,#1165,.T.);
#1172 = ORIENTED_EDGE('',*,*,#272,.F.);
#1173 = CYLINDRICAL_SURFACE('',#1174,3.4);
#1174 = AXIS2_PLACEMENT_3D('',#1175,#1176,#1177);
#1175 = CARTESIAN_POINT('',(62.5,-3.552713678801E-15,20.));
#1176 = DIRECTION('',(-1.,-1.1E-16,1.1E-16));
#1177 = DIRECTION('',(-1.1E-16,1.,-2.22044604925E-16));
#1178 = ADVANCED_FACE('',(#1179),#1198,.F.);
#1179 = FACE_BOUND('',#1180,.T.);
#1180 = EDGE_LOOP('',(#1181,#1189,#1190,#1191));
#1181 = ORIENTED_EDGE('',*,*,#1182,.F.);
#1182 = EDGE_CURVE('',#818,#1183,#1185,.T.);
#1183 = VERTEX_POINT('',#1184);
#1184 = CARTESIAN_POINT('',(42.5,14.1,10.));
#1185 = LINE('',#1186,#1187);
#1186 = CARTESIAN_POINT('',(62.5,14.1,10.));
#1187 = VECTOR('',#1188,1.);
#1188 = DIRECTION('',(-1.,-1.7763568394E-16,1.110223024625E-16));
#1189 = ORIENTED_EDGE('',*,*,#817,.T.);
#1190 = ORIENTED_EDGE('',*,*,#1182,.T.);
#1191 = ORIENTED_EDGE('',*,*,#1192,.F.);
#1192 = EDGE_CURVE('',#1183,#1183,#1193,.T.);
#1193 = CIRCLE('',#1194,1.6);
#1194 = AXIS2_PLACEMENT_3D('',#1195,#1196,#1197);
#1195 = CARTESIAN_POINT('',(42.5,12.5,10.));
#1196 = DIRECTION('',(1.,1.110223024625E-16,-1.110223024625E-16));
#1197 = DIRECTION('',(-1.110223024625E-16,1.,-3.330669073875E-16));
#1198 = CYLINDRICAL_SURFACE('',#1199,1.6);
#1199 = AXIS2_PLACEMENT_3D('',#1200,#1201,#1202);
#1200 = CARTESIAN_POINT('',(62.5,12.5,10.));
#1201 = DIRECTION('',(-1.,-1.110223024625E-16,1.110223024625E-16));
#1202 = DIRECTION('',(-1.110223024625E-16,1.,-3.330669073875E-16));
#1203 = ADVANCED_FACE('',(#1204),#1223,.F.);
#1204 = FACE_BOUND('',#1205,.T.);
#1205 = EDGE_LOOP('',(#1206,#1214,#1215,#1216));
#1206 = ORIENTED_EDGE('',*,*,#1207,.F.);
#1207 = EDGE_CURVE('',#829,#1208,#1210,.T.);
#1208 = VERTEX_POINT('',#1209);
#1209 = CARTESIAN_POINT('',(42.5,-10.9,10.));
#1210 = LINE('',#1211,#1212);
#1211 = CARTESIAN_POINT('',(62.5,-10.9,10.));
#1212 = VECTOR('',#1213,1.);
#1213 = DIRECTION('',(-1.,-1.7763568394E-16,1.110223024625E-16));
#1214 = ORIENTED_EDGE('',*,*,#828,.T.);
#1215 = ORIENTED_EDGE('',*,*,#1207,.T.);
#1216 = ORIENTED_EDGE('',*,*,#1217,.F.);
#1217 = EDGE_CURVE('',#1208,#1208,#1218,.T.);
#1218 = CIRCLE('',#1219,1.6);
#1219 = AXIS2_PLACEMENT_3D('',#1220,#1221,#1222);
#1220 = CARTESIAN_POINT('',(42.5,-12.5,10.));
#1221 = DIRECTION('',(1.,1.110223024625E-16,-1.110223024625E-16));
#1222 = DIRECTION('',(-1.110223024625E-16,1.,-3.330669073875E-16));
#1223 = CYLINDRICAL_SURFACE('',#1224,1.6);
#1224 = AXIS2_PLACEMENT_3D('',#1225,#1226,#1227);
#1225 = CARTESIAN_POINT('',(62.5,-12.5,10.));
#1226 = DIRECTION('',(-1.,-1.110223024625E-16,1.110223024625E-16));
#1227 = DIRECTION('',(-1.110223024625E-16,1.,-3.330669073875E-16));
#1228 = ADVANCED_FACE('',(#1229),#1241,.F.);
#1229 = FACE_BOUND('',#1230,.T.);
#1230 = EDGE_LOOP('',(#1231,#1232,#1240));
#1231 = ORIENTED_EDGE('',*,*,#918,.T.);
#1232 = ORIENTED_EDGE('',*,*,#1233,.T.);
#1233 = EDGE_CURVE('',#909,#1234,#1236,.T.);
#1234 = VERTEX_POINT('',#1235);
#1235 = CARTESIAN_POINT('',(33.25,-13.75,19.248924226216));
#1236 = LINE('',#1237,#1238);
#1237 = CARTESIAN_POINT('',(34.5,-13.75,20.));
#1238 = VECTOR('',#1239,1.);
#1239 = DIRECTION('',(-0.857167300702,-5.436142586475E-17,-0.51503807491
    ));
#1240 = ORIENTED_EDGE('',*,*,#1233,.F.);
#1241 = CONICAL_SURFACE('',#1242,1.25,1.029744258677);
#1242 = AXIS2_PLACEMENT_3D('',#1243,#1244,#1245);
#1243 = CARTESIAN_POINT('',(33.25,-13.75,20.));
#1244 = DIRECTION('',(0.,1.12044604925E-16,1.));
#1245 = DIRECTION('',(1.,0.,0.));
#1246 = ADVANCED_FACE('',(#1247),#1259,.F.);
#1247 = FACE_BOUND('',#1248,.T.);
#1248 = EDGE_LOOP('',(#1249,#1250,#1258));
#1249 = ORIENTED_EDGE('',*,*,#943,.T.);
#1250 = ORIENTED_EDGE('',*,*,#1251,.T.);
#1251 = EDGE_CURVE('',#934,#1252,#1254,.T.);
#1252 = VERTEX_POINT('',#1253);
#1253 = CARTESIAN_POINT('',(56.75,-13.75,19.248924226216));
#1254 = LINE('',#1255,#1256);
#1255 = CARTESIAN_POINT('',(58.,-13.75,20.));
#1256 = VECTOR('',#1257,1.);
#1257 = DIRECTION('',(-0.857167300702,-5.436142586475E-17,-0.51503807491
    ));
#1258 = ORIENTED_EDGE('',*,*,#1251,.F.);
#1259 = CONICAL_SURFACE('',#1260,1.25,1.029744258677);
#1260 = AXIS2_PLACEMENT_3D('',#1261,#1262,#1263);
#1261 = CARTESIAN_POINT('',(56.75,-13.75,20.));
#1262 = DIRECTION('',(0.,1.12044604925E-16,1.));
#1263 = DIRECTION('',(1.,0.,0.));
#1264 = ADVANCED_FACE('',(#1265,#1268),#1279,.F.);
#1265 = FACE_BOUND('',#1266,.T.);
#1266 = EDGE_LOOP('',(#1267));
#1267 = ORIENTED_EDGE('',*,*,#993,.T.);
#1268 = FACE_BOUND('',#1269,.T.);
#1269 = EDGE_LOOP('',(#1270));
#1270 = ORIENTED_EDGE('',*,*,#1271,.F.);
#1271 = EDGE_CURVE('',#1272,#1272,#1274,.T.);
#1272 = VERTEX_POINT('',#1273);
#1273 = CARTESIAN_POINT('',(45.,12.9,29.));
#1274 = CIRCLE('',#1275,12.9);
#1275 = AXIS2_PLACEMENT_3D('',#1276,#1277,#1278);
#1276 = CARTESIAN_POINT('',(45.,-7.064571740902E-19,29.));
#1277 = DIRECTION('',(1.1E-16,2.044604925031E-18,1.));
#1278 = DIRECTION('',(0.,1.,-2.044604925031E-18));
#1279 = PLANE('',#1280);
#1280 = AXIS2_PLACEMENT_3D('',#1281,#1282,#1283);
#1281 = CARTESIAN_POINT('',(45.,-7.064571740902E-19,29.));
#1282 = DIRECTION('',(-1.1E-16,-2.044604925031E-18,-1.));
#1283 = DIRECTION('',(0.,-1.,2.044604925031E-18));
#1284 = ADVANCED_FACE('',(#1285),#1297,.F.);
#1285 = FACE_BOUND('',#1286,.T.);
#1286 = EDGE_LOOP('',(#1287,#1288,#1296));
#1287 = ORIENTED_EDGE('',*,*,#1018,.T.);
#1288 = ORIENTED_EDGE('',*,*,#1289,.T.);
#1289 = EDGE_CURVE('',#1009,#1290,#1292,.T.);
#1290 = VERTEX_POINT('',#1291);
#1291 = CARTESIAN_POINT('',(33.25,13.75,19.248924226216));
#1292 = LINE('',#1293,#1294);
#1293 = CARTESIAN_POINT('',(34.5,13.75,20.));
#1294 = VECTOR('',#1295,1.);
#1295 = DIRECTION('',(-0.857167300702,-5.436142586475E-17,-0.51503807491
    ));
#1296 = ORIENTED_EDGE('',*,*,#1289,.F.);
#1297 = CONICAL_SURFACE('',#1298,1.25,1.029744258677);
#1298 = AXIS2_PLACEMENT_3D('',#1299,#1300,#1301);
#1299 = CARTESIAN_POINT('',(33.25,13.75,20.));
#1300 = DIRECTION('',(0.,1.12044604925E-16,1.));
#1301 = DIRECTION('',(1.,0.,0.));
#1302 = ADVANCED_FACE('',(#1303),#1315,.F.);
#1303 = FACE_BOUND('',#1304,.T.);
#1304 = EDGE_LOOP('',(#1305,#1306,#1314));
#1305 = ORIENTED_EDGE('',*,*,#1043,.T.);
#1306 = ORIENTED_EDGE('',*,*,#1307,.T.);
#1307 = EDGE_CURVE('',#1034,#1308,#1310,.T.);
#1308 = VERTEX_POINT('',#1309);
#1309 = CARTESIAN_POINT('',(56.75,13.75,19.248924226216));
#1310 = LINE('',#1311,#1312);
#1311 = CARTESIAN_POINT('',(58.,13.75,20.));
#1312 = VECTOR('',#1313,1.);
#1313 = DIRECTION('',(-0.857167300702,-5.436142586475E-17,-0.51503807491
    ));
#1314 = ORIENTED_EDGE('',*,*,#1307,.F.);
#1315 = CONICAL_SURFACE('',#1316,1.25,1.029744258677);
#1316 = AXIS2_PLACEMENT_3D('',#1317,#1318,#1319);
#1317 = CARTESIAN_POINT('',(56.75,13.75,20.));
#1318 = DIRECTION('',(0.,1.12044604925E-16,1.));
#1319 = DIRECTION('',(1.,0.,0.));
#1320 = ADVANCED_FACE('',(#1321),#1340,.F.);
#1321 = FACE_BOUND('',#1322,.F.);
#1322 = EDGE_LOOP('',(#1323,#1332,#1338,#1339));
#1323 = ORIENTED_EDGE('',*,*,#1324,.F.);
#1324 = EDGE_CURVE('',#1325,#1325,#1327,.T.);
#1325 = VERTEX_POINT('',#1326);
#1326 = CARTESIAN_POINT('',(55.,9.992007221626E-16,4.5));
#1327 = CIRCLE('',#1328,10.);
#1328 = AXIS2_PLACEMENT_3D('',#1329,#1330,#1331);
#1329 = CARTESIAN_POINT('',(45.,8.881784197001E-16,4.5));
#1330 = DIRECTION('',(-0.,2.22044604925E-16,1.));
#1331 = DIRECTION('',(1.,0.,0.));
#1332 = ORIENTED_EDGE('',*,*,#1333,.T.);
#1333 = EDGE_CURVE('',#1325,#1112,#1334,.T.);
#1334 = LINE('',#1335,#1336);
#1335 = CARTESIAN_POINT('',(55.,4.992007221626E-16,4.5));
#1336 = VECTOR('',#1337,1.);
#1337 = DIRECTION('',(-0.,-1.12044604925E-16,-1.));
#1338 = ORIENTED_EDGE('',*,*,#1111,.T.);
#1339 = ORIENTED_EDGE('',*,*,#1333,.F.);
#1340 = CYLINDRICAL_SURFACE('',#1341,10.);
#1341 = AXIS2_PLACEMENT_3D('',#1342,#1343,#1344);
#1342 = CARTESIAN_POINT('',(45.,4.992007221626E-16,4.5));
#1343 = DIRECTION('',(0.,1.12044604925E-16,1.));
#1344 = DIRECTION('',(1.,0.,0.));
#1345 = ADVANCED_FACE('',(#1346),#1358,.F.);
#1346 = FACE_BOUND('',#1347,.T.);
#1347 = EDGE_LOOP('',(#1348,#1349,#1357));
#1348 = ORIENTED_EDGE('',*,*,#1192,.T.);
#1349 = ORIENTED_EDGE('',*,*,#1350,.T.);
#1350 = EDGE_CURVE('',#1183,#1351,#1353,.T.);
#1351 = VERTEX_POINT('',#1352);
#1352 = CARTESIAN_POINT('',(41.538623009556,12.5,10.));
#1353 = LINE('',#1354,#1355);
#1354 = CARTESIAN_POINT('',(42.5,14.1,10.));
#1355 = VECTOR('',#1356,1.);
#1356 = DIRECTION('',(-0.51503807491,-0.857167300702,3.42674774891E-16)
  );
#1357 = ORIENTED_EDGE('',*,*,#1350,.F.);
#1358 = CONICAL_SURFACE('',#1359,1.6,1.029744258677);
#1359 = AXIS2_PLACEMENT_3D('',#1360,#1361,#1362);
#1360 = CARTESIAN_POINT('',(42.5,12.5,10.));
#1361 = DIRECTION('',(1.,1.110223024625E-16,-1.110223024625E-16));
#1362 = DIRECTION('',(-1.110223024625E-16,1.,-3.330669073875E-16));
#1363 = ADVANCED_FACE('',(#1364),#1376,.F.);
#1364 = FACE_BOUND('',#1365,.T.);
#1365 = EDGE_LOOP('',(#1366,#1367,#1375));
#1366 = ORIENTED_EDGE('',*,*,#1217,.T.);
#1367 = ORIENTED_EDGE('',*,*,#1368,.T.);
#1368 = EDGE_CURVE('',#1208,#1369,#1371,.T.);
#1369 = VERTEX_POINT('',#1370);
#1370 = CARTESIAN_POINT('',(41.538623009556,-12.5,10.));
#1371 = LINE('',#1372,#1373);
#1372 = CARTESIAN_POINT('',(42.5,-10.9,10.));
#1373 = VECTOR('',#1374,1.);
#1374 = DIRECTION('',(-0.51503807491,-0.857167300702,3.42674774891E-16)
  );
#1375 = ORIENTED_EDGE('',*,*,#1368,.F.);
#1376 = CONICAL_SURFACE('',#1377,1.6,1.029744258677);
#1377 = AXIS2_PLACEMENT_3D('',#1378,#1379,#1380);
#1378 = CARTESIAN_POINT('',(42.5,-12.5,10.));
#1379 = DIRECTION('',(1.,1.110223024625E-16,-1.110223024625E-16));
#1380 = DIRECTION('',(-1.110223024625E-16,1.,-3.330669073875E-16));
#1381 = ADVANCED_FACE('',(#1382),#1401,.F.);
#1382 = FACE_BOUND('',#1383,.T.);
#1383 = EDGE_LOOP('',(#1384,#1385,#1393,#1400));
#1384 = ORIENTED_EDGE('',*,*,#1271,.T.);
#1385 = ORIENTED_EDGE('',*,*,#1386,.T.);
#1386 = EDGE_CURVE('',#1272,#1387,#1389,.T.);
#1387 = VERTEX_POINT('',#1388);
#1388 = CARTESIAN_POINT('',(45.,12.9,27.5));
#1389 = LINE('',#1390,#1391);
#1390 = CARTESIAN_POINT('',(45.,12.9,29.));
#1391 = VECTOR('',#1392,1.);
#1392 = DIRECTION('',(0.,-2.22044604925E-16,-1.));
#1393 = ORIENTED_EDGE('',*,*,#1394,.F.);
#1394 = EDGE_CURVE('',#1387,#1387,#1395,.T.);
#1395 = CIRCLE('',#1396,12.9);
#1396 = AXIS2_PLACEMENT_3D('',#1397,#1398,#1399);
#1397 = CARTESIAN_POINT('',(45.,-3.773364561638E-18,27.5));
#1398 = DIRECTION('',(1.1E-16,2.044604925031E-18,1.));
#1399 = DIRECTION('',(0.,1.,-2.044604925031E-18));
#1400 = ORIENTED_EDGE('',*,*,#1386,.F.);
#1401 = CYLINDRICAL_SURFACE('',#1402,12.9);
#1402 = AXIS2_PLACEMENT_3D('',#1403,#1404,#1405);
#1403 = CARTESIAN_POINT('',(45.,-7.064571740902E-19,29.));
#1404 = DIRECTION('',(-1.1E-16,-2.044604925031E-18,-1.));
#1405 = DIRECTION('',(0.,1.,-2.044604925031E-18));
#1406 = ADVANCED_FACE('',(#1407,#1410),#1421,.F.);
#1407 = FACE_BOUND('',#1408,.F.);
#1408 = EDGE_LOOP('',(#1409));
#1409 = ORIENTED_EDGE('',*,*,#1324,.T.);
#1410 = FACE_BOUND('',#1411,.T.);
#1411 = EDGE_LOOP('',(#1412));
#1412 = ORIENTED_EDGE('',*,*,#1413,.T.);
#1413 = EDGE_CURVE('',#1414,#1414,#1416,.T.);
#1414 = VERTEX_POINT('',#1415);
#1415 = CARTESIAN_POINT('',(48.5,9.992007221626E-16,4.5));
#1416 = CIRCLE('',#1417,3.5);
#1417 = AXIS2_PLACEMENT_3D('',#1418,#1419,#1420);
#1418 = CARTESIAN_POINT('',(45.,8.881784197001E-16,4.5));
#1419 = DIRECTION('',(-0.,2.22044604925E-16,1.));
#1420 = DIRECTION('',(1.,0.,0.));
#1421 = PLANE('',#1422);
#1422 = AXIS2_PLACEMENT_3D('',#1423,#1424,#1425);
#1423 = CARTESIAN_POINT('',(11.282392873298,9.992007221626E-16,4.5));
#1424 = DIRECTION('',(0.,2.22044604925E-16,1.));
#1425 = DIRECTION('',(1.,0.,0.));
#1426 = ADVANCED_FACE('',(#1427,#1430),#1441,.T.);
#1427 = FACE_BOUND('',#1428,.F.);
#1428 = EDGE_LOOP('',(#1429));
#1429 = ORIENTED_EDGE('',*,*,#242,.T.);
#1430 = FACE_BOUND('',#1431,.F.);
#1431 = EDGE_LOOP('',(#1432));
#1432 = ORIENTED_EDGE('',*,*,#1433,.F.);
#1433 = EDGE_CURVE('',#1434,#1434,#1436,.T.);
#1434 = VERTEX_POINT('',#1435);
#1435 = CARTESIAN_POINT('',(45.,10.4,27.9));
#1436 = CIRCLE('',#1437,10.4);
#1437 = AXIS2_PLACEMENT_3D('',#1438,#1439,#1440);
#1438 = CARTESIAN_POINT('',(45.,-4.955522591625E-18,27.9));
#1439 = DIRECTION('',(1.1E-16,2.044604925031E-18,1.));
#1440 = DIRECTION('',(0.,1.,-2.044604925031E-18));
#1441 = PLANE('',#1442);
#1442 = AXIS2_PLACEMENT_3D('',#1443,#1444,#1445);
#1443 = CARTESIAN_POINT('',(45.,-4.955522591625E-18,27.9));
#1444 = DIRECTION('',(1.1E-16,2.044604925031E-18,1.));
#1445 = DIRECTION('',(0.,1.,-2.044604925031E-18));
#1446 = ADVANCED_FACE('',(#1447,#1450),#1461,.F.);
#1447 = FACE_BOUND('',#1448,.T.);
#1448 = EDGE_LOOP('',(#1449));
#1449 = ORIENTED_EDGE('',*,*,#259,.T.);
#1450 = FACE_BOUND('',#1451,.T.);
#1451 = EDGE_LOOP('',(#1452));
#1452 = ORIENTED_EDGE('',*,*,#1453,.F.);
#1453 = EDGE_CURVE('',#1454,#1454,#1456,.T.);
#1454 = VERTEX_POINT('',#1455);
#1455 = CARTESIAN_POINT('',(45.,5.4,11.5));
#1456 = CIRCLE('',#1457,5.4);
#1457 = AXIS2_PLACEMENT_3D('',#1458,#1459,#1460);
#1458 = CARTESIAN_POINT('',(45.,3.51295663786E-18,11.5));
#1459 = DIRECTION('',(1.1E-16,2.044604925031E-18,1.));
#1460 = DIRECTION('',(0.,1.,-2.044604925031E-18));
#1461 = PLANE('',#1462);
#1462 = AXIS2_PLACEMENT_3D('',#1463,#1464,#1465);
#1463 = CARTESIAN_POINT('',(45.,3.512956637861E-18,11.5));
#1464 = DIRECTION('',(-1.1E-16,-2.044604925031E-18,-1.));
#1465 = DIRECTION('',(0.,-1.,2.044604925031E-18));
#1466 = ADVANCED_FACE('',(#1467,#1470),#1481,.F.);
#1467 = FACE_BOUND('',#1468,.T.);
#1468 = EDGE_LOOP('',(#1469));
#1469 = ORIENTED_EDGE('',*,*,#1394,.T.);
#1470 = FACE_BOUND('',#1471,.T.);
#1471 = EDGE_LOOP('',(#1472));
#1472 = ORIENTED_EDGE('',*,*,#1473,.F.);
#1473 = EDGE_CURVE('',#1474,#1474,#1476,.T.);
#1474 = VERTEX_POINT('',#1475);
#1475 = CARTESIAN_POINT('',(45.,10.4,27.5));
#1476 = CIRCLE('',#1477,10.4);
#1477 = AXIS2_PLACEMENT_3D('',#1478,#1479,#1480);
#1478 = CARTESIAN_POINT('',(45.,-3.773364561638E-18,27.5));
#1479 = DIRECTION('',(1.1E-16,2.044604925031E-18,1.));
#1480 = DIRECTION('',(0.,1.,-2.044604925031E-18));
#1481 = PLANE('',#1482);
#1482 = AXIS2_PLACEMENT_3D('',#1483,#1484,#1485);
#1483 = CARTESIAN_POINT('',(45.,-3.773364561638E-18,27.5));
#1484 = DIRECTION('',(-1.1E-16,-2.044604925031E-18,-1.));
#1485 = DIRECTION('',(0.,-1.,2.044604925031E-18));
#1486 = ADVANCED_FACE('',(#1487),#1506,.T.);
#1487 = FACE_BOUND('',#1488,.T.);
#1488 = EDGE_LOOP('',(#1489,#1490,#1498,#1505));
#1489 = ORIENTED_EDGE('',*,*,#1413,.F.);
#1490 = ORIENTED_EDGE('',*,*,#1491,.T.);
#1491 = EDGE_CURVE('',#1414,#1492,#1494,.T.);
#1492 = VERTEX_POINT('',#1493);
#1493 = CARTESIAN_POINT('',(48.5,0.,0.));
#1494 = LINE('',#1495,#1496);
#1495 = CARTESIAN_POINT('',(48.5,4.992007221626E-16,4.5));
#1496 = VECTOR('',#1497,1.);
#1497 = DIRECTION('',(-0.,-1.12044604925E-16,-1.));
#1498 = ORIENTED_EDGE('',*,*,#1499,.T.);
#1499 = EDGE_CURVE('',#1492,#1492,#1500,.T.);
#1500 = CIRCLE('',#1501,3.5);
#1501 = AXIS2_PLACEMENT_3D('',#1502,#1503,#1504);
#1502 = CARTESIAN_POINT('',(45.,0.,0.));
#1503 = DIRECTION('',(-0.,1.12044604925E-16,1.));
#1504 = DIRECTION('',(1.,0.,0.));
#1505 = ORIENTED_EDGE('',*,*,#1491,.F.);
#1506 = CYLINDRICAL_SURFACE('',#1507,3.5);
#1507 = AXIS2_PLACEMENT_3D('',#1508,#1509,#1510);
#1508 = CARTESIAN_POINT('',(45.,4.992007221626E-16,4.5));
#1509 = DIRECTION('',(0.,1.12044604925E-16,1.));
#1510 = DIRECTION('',(1.,0.,0.));
#1511 = ADVANCED_FACE('',(#1512),#1523,.T.);
#1512 = FACE_BOUND('',#1513,.T.);
#1513 = EDGE_LOOP('',(#1514,#1515,#1521,#1522));
#1514 = ORIENTED_EDGE('',*,*,#1473,.T.);
#1515 = ORIENTED_EDGE('',*,*,#1516,.T.);
#1516 = EDGE_CURVE('',#1474,#1434,#1517,.T.);
#1517 = LINE('',#1518,#1519);
#1518 = CARTESIAN_POINT('',(45.,10.4,27.5));
#1519 = VECTOR('',#1520,1.);
#1520 = DIRECTION('',(0.,2.22044604925E-16,1.));
#1521 = ORIENTED_EDGE('',*,*,#1433,.F.);
#1522 = ORIENTED_EDGE('',*,*,#1516,.F.);
#1523 = CYLINDRICAL_SURFACE('',#1524,10.4);
#1524 = AXIS2_PLACEMENT_3D('',#1525,#1526,#1527);
#1525 = CARTESIAN_POINT('',(45.,-3.773364561638E-18,27.5));
#1526 = DIRECTION('',(1.1E-16,2.044604925031E-18,1.));
#1527 = DIRECTION('',(0.,1.,-2.044604925031E-18));
#1528 = ADVANCED_FACE('',(#1529),#1548,.F.);
#1529 = FACE_BOUND('',#1530,.T.);
#1530 = EDGE_LOOP('',(#1531,#1532,#1540,#1547));
#1531 = ORIENTED_EDGE('',*,*,#1453,.T.);
#1532 = ORIENTED_EDGE('',*,*,#1533,.T.);
#1533 = EDGE_CURVE('',#1454,#1534,#1536,.T.);
#1534 = VERTEX_POINT('',#1535);
#1535 = CARTESIAN_POINT('',(45.,4.788888888889,6.5));
#1536 = LINE('',#1537,#1538);
#1537 = CARTESIAN_POINT('',(45.,5.4,11.5));
#1538 = VECTOR('',#1539,1.);
#1539 = DIRECTION('',(0.,-0.121319429965,-0.992613517898));
#1540 = ORIENTED_EDGE('',*,*,#1541,.F.);
#1541 = EDGE_CURVE('',#1534,#1534,#1542,.T.);
#1542 = CIRCLE('',#1543,4.788888888889);
#1543 = AXIS2_PLACEMENT_3D('',#1544,#1545,#1546);
#1544 = CARTESIAN_POINT('',(45.,3.289932012704E-18,6.5));
#1545 = DIRECTION('',(1.1E-16,2.044604925031E-18,1.));
#1546 = DIRECTION('',(0.,1.,-2.044604925031E-18));
#1547 = ORIENTED_EDGE('',*,*,#1533,.F.);
#1548 = CONICAL_SURFACE('',#1549,5.4,0.121619023261);
#1549 = AXIS2_PLACEMENT_3D('',#1550,#1551,#1552);
#1550 = CARTESIAN_POINT('',(45.,3.51295663786E-18,11.5));
#1551 = DIRECTION('',(1.1E-16,2.044604925031E-18,1.));
#1552 = DIRECTION('',(0.,1.,-2.044604925031E-18));
#1553 = ADVANCED_FACE('',(#1554,#1557),#1568,.F.);
#1554 = FACE_BOUND('',#1555,.F.);
#1555 = EDGE_LOOP('',(#1556));
#1556 = ORIENTED_EDGE('',*,*,#1499,.T.);
#1557 = FACE_BOUND('',#1558,.F.);
#1558 = EDGE_LOOP('',(#1559));
#1559 = ORIENTED_EDGE('',*,*,#1560,.F.);
#1560 = EDGE_CURVE('',#1561,#1561,#1563,.T.);
#1561 = VERTEX_POINT('',#1562);
#1562 = CARTESIAN_POINT('',(45.,2.5,4.448884876874E-16));
#1563 = CIRCLE('',#1564,2.5);
#1564 = AXIS2_PLACEMENT_3D('',#1565,#1566,#1567);
#1565 = CARTESIAN_POINT('',(45.,6.217248937901E-32,2.8E-16));
#1566 = DIRECTION('',(1.1E-16,2.044604925031E-18,1.));
#1567 = DIRECTION('',(0.,1.,-2.044604925031E-18));
#1568 = PLANE('',#1569);
#1569 = AXIS2_PLACEMENT_3D('',#1570,#1571,#1572);
#1570 = CARTESIAN_POINT('',(22.5,0.,0.));
#1571 = DIRECTION('',(0.,2.22044604925E-16,1.));
#1572 = DIRECTION('',(1.,0.,0.));
#1573 = ADVANCED_FACE('',(#1574,#1577),#1588,.F.);
#1574 = FACE_BOUND('',#1575,.T.);
#1575 = EDGE_LOOP('',(#1576));
#1576 = ORIENTED_EDGE('',*,*,#1541,.T.);
#1577 = FACE_BOUND('',#1578,.T.);
#1578 = EDGE_LOOP('',(#1579));
#1579 = ORIENTED_EDGE('',*,*,#1580,.F.);
#1580 = EDGE_CURVE('',#1581,#1581,#1583,.T.);
#1581 = VERTEX_POINT('',#1582);
#1582 = CARTESIAN_POINT('',(45.,2.5,6.5));
#1583 = CIRCLE('',#1584,2.5);
#1584 = AXIS2_PLACEMENT_3D('',#1585,#1586,#1587);
#1585 = CARTESIAN_POINT('',(45.,3.289932012704E-18,6.5));
#1586 = DIRECTION('',(1.1E-16,2.044604925031E-18,1.));
#1587 = DIRECTION('',(0.,1.,-2.044604925031E-18));
#1588 = PLANE('',#1589);
#1589 = AXIS2_PLACEMENT_3D('',#1590,#1591,#1592);
#1590 = CARTESIAN_POINT('',(45.,3.289932012704E-18,6.5));
#1591 = DIRECTION('',(-1.1E-16,-2.044604925031E-18,-1.));
#1592 = DIRECTION('',(0.,-1.,2.044604925031E-18));
#1593 = ADVANCED_FACE('',(#1594),#1605,.F.);
#1594 = FACE_BOUND('',#1595,.T.);
#1595 = EDGE_LOOP('',(#1596,#1602,#1603,#1604));
#1596 = ORIENTED_EDGE('',*,*,#1597,.F.);
#1597 = EDGE_CURVE('',#1581,#1561,#1598,.T.);
#1598 = LINE('',#1599,#1600);
#1599 = CARTESIAN_POINT('',(45.,2.5,6.5));
#1600 = VECTOR('',#1601,1.);
#1601 = DIRECTION('',(0.,-2.22044604925E-16,-1.));
#1602 = ORIENTED_EDGE('',*,*,#1580,.T.);
#1603 = ORIENTED_EDGE('',*,*,#1597,.T.);
#1604 = ORIENTED_EDGE('',*,*,#1560,.F.);
#1605 = CYLINDRICAL_SURFACE('',#1606,2.5);
#1606 = AXIS2_PLACEMENT_3D('',#1607,#1608,#1609);
#1607 = CARTESIAN_POINT('',(45.,3.289932012704E-18,6.5));
#1608 = DIRECTION('',(-1.1E-16,-2.044604925031E-18,-1.));
#1609 = DIRECTION('',(0.,1.,-2.044604925031E-18));
#1610 = ADVANCED_FACE('',(#1611),#1617,.T.);
#1611 = FACE_BOUND('',#1612,.T.);
#1612 = EDGE_LOOP('',(#1613,#1614,#1615,#1616));
#1613 = ORIENTED_EDGE('',*,*,#1059,.T.);
#1614 = ORIENTED_EDGE('',*,*,#855,.T.);
#1615 = ORIENTED_EDGE('',*,*,#611,.T.);
#1616 = ORIENTED_EDGE('',*,*,#759,.F.);
#1617 = PLANE('',#1618);
#1618 = AXIS2_PLACEMENT_3D('',#1619,#1620,#1621);
#1619 = CARTESIAN_POINT('',(22.5,17.5,17.25));
#1620 = DIRECTION('',(-0.,1.,-2.22044604925E-16));
#1621 = DIRECTION('',(-1.,0.,0.));
#1622 = ADVANCED_FACE('',(#1623),#1629,.T.);
#1623 = FACE_BOUND('',#1624,.T.);
#1624 = EDGE_LOOP('',(#1625,#1626,#1627,#1628));
#1625 = ORIENTED_EDGE('',*,*,#1148,.F.);
#1626 = ORIENTED_EDGE('',*,*,#766,.T.);
#1627 = ORIENTED_EDGE('',*,*,#629,.F.);
#1628 = ORIENTED_EDGE('',*,*,#862,.F.);
#1629 = PLANE('',#1630);
#1630 = AXIS2_PLACEMENT_3D('',#1631,#1632,#1633);
#1631 = CARTESIAN_POINT('',(22.5,-17.5,17.25));
#1632 = DIRECTION('',(0.,-1.,2.22044604925E-16));
#1633 = DIRECTION('',(1.,0.,0.));
#1634 = ADVANCED_FACE('',(#1635),#1656,.F.);
#1635 = FACE_BOUND('',#1636,.T.);
#1636 = EDGE_LOOP('',(#1637,#1638,#1643,#1644,#1645,#1646,#1647,#1648,
    #1653,#1654,#1655));
#1637 = ORIENTED_EDGE('',*,*,#136,.T.);
#1638 = ORIENTED_EDGE('',*,*,#1639,.T.);
#1639 = EDGE_CURVE('',#100,#390,#1640,.T.);
#1640 = B_SPLINE_CURVE_WITH_KNOTS('',1,(#1641,#1642),.UNSPECIFIED.,.F.,
  .F.,(2,2),(43.2,44.),.PIECEWISE_BEZIER_KNOTS.);
#1641 = CARTESIAN_POINT('',(5.,1.482349362741E-15,16.8));
#1642 = CARTESIAN_POINT('',(5.,1.392713678801E-15,16.));
#1643 = ORIENTED_EDGE('',*,*,#486,.F.);
#1644 = ORIENTED_EDGE('',*,*,#399,.F.);
#1645 = ORIENTED_EDGE('',*,*,#1639,.F.);
#1646 = ORIENTED_EDGE('',*,*,#99,.T.);
#1647 = ORIENTED_EDGE('',*,*,#198,.T.);
#1648 = ORIENTED_EDGE('',*,*,#1649,.F.);
#1649 = EDGE_CURVE('',#724,#137,#1650,.T.);
#1650 = B_SPLINE_CURVE_WITH_KNOTS('',1,(#1651,#1652),.UNSPECIFIED.,.F.,
  .F.,(2,2),(0.,36.8),.PIECEWISE_BEZIER_KNOTS.);
#1651 = CARTESIAN_POINT('',(5.,5.098029496355E-15,60.));
#1652 = CARTESIAN_POINT('',(5.,9.747880351134E-16,23.2));
#1653 = ORIENTED_EDGE('',*,*,#723,.T.);
#1654 = ORIENTED_EDGE('',*,*,#734,.T.);
#1655 = ORIENTED_EDGE('',*,*,#1649,.T.);
#1656 = CYLINDRICAL_SURFACE('',#1657,5.);
#1657 = AXIS2_PLACEMENT_3D('',#1658,#1659,#1660);
#1658 = CARTESIAN_POINT('',(0.,6.322676295502E-15,60.));
#1659 = DIRECTION('',(-0.,-1.12044604925E-16,-1.));
#1660 = DIRECTION('',(1.,0.,0.));
#1661 = ( GEOMETRIC_REPRESENTATION_CONTEXT(3) 
GLOBAL_UNCERTAINTY_ASSIGNED_CONTEXT((#1665)) 
GLOBAL_UNIT_ASSIGNED_CONTEXT((#1662,#1663,#1664)) REPRESENTATION_CONTEXT
('Context #1','3D Context with UNIT and UNCERTAINTY') );
#1662 = ( LENGTH_UNIT() NAMED_UNIT(*) SI_UNIT(.MILLI.,.METRE.) );
#1663 = ( NAMED_UNIT(*) PLANE_ANGLE_UNIT() SI_UNIT($,.RADIAN.) );
#1664 = ( NAMED_UNIT(*) SI_UNIT($,.STERADIAN.) SOLID_ANGLE_UNIT() );
#1665 = UNCERTAINTY_MEASURE_WITH_UNIT(LENGTH_MEASURE(1.E-05),#1662,
  'distance_accuracy_value','confusion accuracy');
#1666 = PRODUCT_RELATED_PRODUCT_CATEGORY('part',$,(#7));
#1667 = MECHANICAL_DESIGN_GEOMETRIC_PRESENTATION_REPRESENTATION('',(
    #1668),#1661);
#1668 = STYLED_ITEM('color',(#1669),#15);
#1669 = PRESENTATION_STYLE_ASSIGNMENT((#1670,#1678));
#1670 = SURFACE_STYLE_USAGE(.BOTH.,#1671);
#1671 = SURFACE_SIDE_STYLE('',(#1672,#1676));
#1672 = SURFACE_STYLE_FILL_AREA(#1673);
#1673 = FILL_AREA_STYLE('',(#1674));
#1674 = FILL_AREA_STYLE_COLOUR('',#1675);
#1675 = COLOUR_RGB('',0.301960791261,0.301960791261,0.301960791261);
#1676 = SURFACE_STYLE_RENDERING_WITH_PROPERTIES(.NORMAL_SHADING.,#1675,(
    #1677));
#1677 = SURFACE_STYLE_TRANSPARENT(0.699999988079);
#1678 = CURVE_STYLE('',#1679,POSITIVE_LENGTH_MEASURE(0.1),#1680);
#1679 = DRAUGHTING_PRE_DEFINED_CURVE_FONT('continuous');
#1680 = COLOUR_RGB('',9.803921802644E-02,9.803921802644E-02,
  9.803921802644E-02);
ENDSEC;
END-ISO-10303-21;
