<?xml version="1.0" encoding="utf-8"?>
<svg viewBox="0 0 200 400" xmlns="http://www.w3.org/2000/svg">
  <path style="stroke: rgb(0, 0, 0); fill: none; stroke-width: 7px;" d="M 59.715 378.066 L 135.118 378.751 C 145.401 349.206 170.518 240.527 170.481 137.232 L 26.123 136.614 C 25.799 256.236 49.354 349.917 59.715 378.066 Z"/>
  <path style="stroke: rgb(0, 0, 0); fill: none; stroke-width: 7px;" d="M 31.31 118.086 L 166.95 117.813 C 154.255 105.181 153.734 57.158 130.074 57.37 C 129.315 43.622 130.943 24.338 113.461 24.719 C 107.656 24.845 95.263 24.363 89.586 24.45 C 74.577 24.679 70.525 36.617 71.694 57.795 C 41.638 55.044 48.982 102.908 31.31 118.086 Z"/>
  <line style="stroke-width: 5px; stroke: rgba(0, 0, 0, 0.14);" x1="33.718" y1="241.27" x2="170.019" y2="186.985"/>
  <polygon style="fill: rgba(0, 0, 0, 0.14);" points="36.064 257.384 166.812 203.559 161.074 257.331 43.321 306.257"/>
</svg>
