<?xml version="1.0" encoding="utf-8"?>
<svg viewBox="0 0 150 200" xmlns="http://www.w3.org/2000/svg">
  <style>
    .str {
      fill: none;
      stroke-linecap: round;
      stroke-linejoin: round;
      stroke-width: 4px;
    }
  </style>
  <path class="str" style="stroke: rgb(217, 255, 221);" d="M 31.114 42.07 L 79.234 26.62 L 31.923 14.356 L 4.161 52.545 L 23.548 44.896 M 47.444 59.978 L 42.539 47.399"/>
  <polygon class="str" style="stroke: rgb(253, 255, 198);" points="73.929 109.138 43.339 84.603 105.121 84.731"/>
  <polyline class="str" style="stroke: rgb(255, 195, 253);" points="102.723 63.361 121.607 14.311 143.917 21.418"/>
  <path class="str" style="stroke: rgb(255, 192, 192);" d="M 79.335 159.473 L 97.323 175.552 C 83.574 182.072 58.682 181.725 48.236 175.276 L 74.443 154.486 L 74.749 119.535 L 145.739 63.29 C 111.565 73.32 43.092 73.926 7.856 62.794 L 66.833 115.078 M 53.193 52.009 C 65.378 49.229 87.29 50.466 99.788 52.469 M 113.235 54.89 C 119.523 55.694 130.1 57.229 137.457 59.148 M 17.179 58.565 C 24.187 56.352 28.981 55.147 35.062 54.354 M 61.585 173.153 L 73.135 164.862"/>
</svg>