<?xml version="1.0" encoding="utf-8"?>
<svg viewBox="0 0 150 200" xmlns="http://www.w3.org/2000/svg">
  <style>
    .str {
      fill: none;
      stroke-linecap: round;
      stroke-linejoin: round;
      stroke-width: 4px;
    }
  </style>
  <path style="stroke: rgb(255, 192, 192);" d="M 107.784 165.533 C 107.784 165.533 107.706 170.445 107.789 174.016 C 107.876 177.791 103.462 180.598 98.579 180.598 C 94.104 180.598 57.451 180.549 52.48 180.549 C 46.886 180.549 43.392 176.56 43.392 173.103 C 43.392 169.568 43.401 159.349 43.401 159.349 L 108.166 159.226 L 108.158 38.578 L 43.086 38.536 L 43.097 151.648" class="str"/>
  <rect x="58.176" y="114.147" width="18.212" height="18.212" style="stroke: rgb(142, 224, 255);" transform="matrix(0.904589, 0.426285, -0.426285, 0.904589, 59.258198, -0.548277)" class="str"/>
  <rect x="58.176" y="114.147" width="18.212" height="18.212" style="stroke: rgb(142, 224, 255);" transform="matrix(0.973991, -0.226585, 0.226585, 0.973991, -6.194349, 3.595434)" class="str"/>
  <polyline class="str" style="stroke: rgb(255, 195, 253);" points="98.43 32.472 101.528 21.307 124.124 41.403"/>
  <polyline class="str" style="stroke: rgb(255, 195, 253);" points="79.775 36.47 91.23 -8.231" transform="matrix(1, 0, 0, 1, 3.457837, 55.321399)"/>
  <path style="stroke: rgb(217, 255, 221);" d="M 40.122 34.936 C 40.122 34.936 37.23 42.044 27.351 46.668 C 17.472 51.292 6.73 49.346 6.706 49.346 C 6.682 49.346 11.964 36.944 20.661 33.271 C 29.358 29.598 41.438 29.289 41.438 29.289 C 41.438 29.289 24.466 28.377 15.349 22.269 C 6.232 16.161 6.711 5.661 6.711 5.661 C 6.711 5.661 20.542 6.137 26.973 11.322 C 33.404 16.507 39.39 23.087 39.39 23.087" class="str"/>
  <path style="stroke: rgb(253, 255, 198);" d="M 43.336 15.68 C 43.336 15.68 51.393 13.402 57.935 20.709 C 64.477 28.016 64.499 34.29 64.499 34.29" class="str"/>
</svg>