<?xml version="1.0" encoding="utf-8"?>
<svg viewBox="0 0 150 200" xmlns="http://www.w3.org/2000/svg">
  <style>
    .str {
      fill: none;
      stroke-linecap: round;
      stroke-linejoin: round;
      stroke-width: 4px;
    }
  </style>
  <path style="stroke: rgb(255, 195, 253);" d="M 116.388 157.344 C 116.388 157.344 116.31 162.256 116.393 165.827 C 116.48 169.602 112.066 172.409 107.183 172.409 C 102.708 172.409 44.282 172.36 39.311 172.36 C 33.717 172.36 30.223 168.371 30.223 164.914 C 30.223 161.379 30.232 151.16 30.232 151.16 L 116.77 151.037 L 116.762 80.054 L 29.917 80.012 L 29.928 143.459" class="str"/>
  <rect x="58.176" y="114.147" width="18.212" height="18.212" style="stroke: rgb(142, 224, 255);" transform="matrix(0.978445, -0.20651, 0.20651, 0.978445, -36.590294, 24.197817)" class="str"/>
  <rect x="58.176" y="114.147" width="18.212" height="18.212" style="stroke: rgb(142, 224, 255);" transform="matrix(0.978411, 0.206671, -0.206671, 0.978411, 45.4907, -16.942724)" class="str"/>
  <path style="stroke: rgb(253, 255, 198);" d="M 104.103 74.353 L 104.159 63.552 C 104.159 63.552 116.158 57.908 126.05 64.453 C 135.942 70.998 140.051 81.717 140.051 81.717 L 121.204 88.528" class="str"/>
  <path d="M -12.35 61.786 L 13.333 48.417 L 17.87 56.971" style="stroke: rgb(217, 255, 221);" class="str" transform="matrix(1, 0, 0, 1, 24.22648, 16.076529)"/>
</svg>