<?xml version="1.0" encoding="utf-8"?>
<svg viewBox="0 0 150 200" xmlns="http://www.w3.org/2000/svg">
  <style>
    .str {
      fill: none;
      stroke-linecap: round;
      stroke-linejoin: round;
      stroke-width: 4px;
    }
  </style>
  <path style="stroke: rgb(255, 195, 253);" d="M 39.265 39.104 C 58.976 74.268 34.365 91.872 34.367 114.814 C 34.369 137.756 54.093 148.037 73.01 147.761 C 91.927 147.485 110.276 143.357 110.575 116.148 C 110.874 88.939 90.526 77.482 109.486 39.724" class="str"/>
  <path style="stroke: rgb(255, 195, 253);" d="M 54.175 63.566 L 94.832 63.69" class="str"/>
  <ellipse style="stroke: rgb(217, 255, 221);" cx="-43.89" cy="27.582" rx="8.615" ry="8.615" class="str"/>
  <path class="str" style="stroke: rgb(253, 255, 198);" d="M -19.085 60.277 L -33.922 38.897 M -52.764 15.71 L -59.547 8.082"/>
  <ellipse style="stroke: rgb(255, 195, 253);" cx="77.113" cy="130.86" rx="8.615" ry="8.615" class="str"/>
  <ellipse style="stroke: rgb(255, 195, 253);" cx="92.338" cy="119.448" rx="3.986" ry="3.986" class="str"/>
  <ellipse style="stroke: rgb(255, 195, 253);" cx="82.698" cy="104.607" rx="3.986" ry="3.986" class="str"/>
  <path style="stroke: rgb(255, 192, 192);" d="M 66.852 153.111 L 67.017 160.654 C 67.017 160.654 62.426 161.079 62.435 166.663 C 62.444 172.247 67.721 172.302 67.721 172.302 C 67.721 172.302 67.599 180.748 67.63 180.778 C 67.661 180.808 37.834 182.097 37.81 188.519 L 105.86 188.975 C 106.139 181.55 76.623 181.214 76.623 181.214 L 76.403 172.425 C 76.403 172.425 81.981 171.385 81.972 166.173 C 81.963 160.961 76.278 160.277 76.278 160.277 L 76.193 153.266" class="str"/>
  <path style="stroke: rgb(253, 255, 198);" d="M 100.228 45.738 L 97.837 18.689 C 97.837 18.689 109.836 13.045 119.728 19.59 C 129.62 26.135 132.45 33.753 132.45 33.753 L 114.723 41.735" class="str"/>
  <polyline class="str" style="stroke: rgb(217, 255, 221);" points="181.89 -2.058 156.109 -45.494 141.541 -24.67" transform="matrix(1, 0, 0, 1, -122.057997, 59.851576)"/>
</svg>