<?xml version="1.0" encoding="utf-8"?>
<svg viewBox="0 0 150 200" xmlns="http://www.w3.org/2000/svg">
  <path style="fill: none; stroke-linecap: round; stroke-linejoin: round; stroke: rgb(255, 192, 192); stroke-width: 4px;" d="M 81.437 163.214 L 103.977 179.185 C 88.274 188.887 59.007 188.045 45.755 180.771 L 73.979 158.115 L 74.749 119.535 L 145.739 63.29 C 111.565 73.32 43.092 73.926 7.856 62.794 L 66.833 115.078"/>
  <path style="fill: none; stroke: rgb(255, 192, 192); stroke-linejoin: round; stroke-linecap: round; stroke-width: 4px;" d="M 53.193 52.009 C 65.378 49.229 87.29 50.466 99.788 52.469"/>
  <line style="fill: none; stroke-linecap: round; stroke-linejoin: round; stroke: rgb(255, 192, 192); stroke-width: 4px;" x1="59.219" y1="178.718" x2="73.121" y2="168.633"/>
  <polygon style="fill: none; stroke-linejoin: round; stroke-linecap: round; stroke: rgb(253, 255, 198); stroke-width: 4px;" points="72.813 109.538 43.281 84.06 105.121 84.731"/>
  <polyline style="fill: none; stroke-linecap: round; stroke-linejoin: round; stroke: rgb(255, 195, 253); stroke-width: 4px;" points="102.723 63.361 121.607 14.311 143.917 21.418"/>
  <path style="fill: none; stroke-linecap: round; stroke-linejoin: round; stroke: rgb(255, 192, 192); stroke-width: 4px;" d="M 113.235 54.89 C 119.523 55.908 130.1 57.229 137.457 59.148"/>
  <path style="fill: none; stroke-linejoin: round; stroke-linecap: round; stroke: rgb(217, 255, 221); stroke-width: 4px;" d="M 31.114 42.07 L 79.234 26.62 L 31.923 14.356 L 4.161 52.545 L 23.548 44.896"/>
  <path style="fill: none; stroke: rgb(255, 192, 192); stroke-linejoin: round; stroke-linecap: round; stroke-width: 4px;" d="M 17.179 58.565 C 24.187 56.352 28.981 55.147 35.062 54.354"/>
  <path style="fill: none; stroke-linejoin: round; stroke-linecap: round; stroke: rgb(217, 255, 221); stroke-width: 4px;" d="M -19.563 16.134 L -26.564 -1.439" transform="matrix(1, 0, 0, 1, 69.176431, 48.719102)"/>
</svg>